<svg width="437" height="462" viewBox="0 0 437 462" fill="none" xmlns="http://www.w3.org/2000/svg">
<g clip-path="url(#clip0_168_502)">
<g clip-path="url(#clip1_168_502)">
<path d="M28.8011 182.119C28.4432 182.114 28.0852 182.045 27.7273 181.915C27.3693 181.784 27.0426 181.564 26.7472 181.254C26.4517 180.942 26.2145 180.52 26.0355 179.989C25.8565 179.455 25.767 178.784 25.767 177.977C25.767 177.205 25.8395 176.52 25.9844 175.923C26.1293 175.324 26.3395 174.82 26.6151 174.411C26.8906 173.999 27.223 173.686 27.6122 173.473C28.0043 173.26 28.446 173.153 28.9375 173.153C29.4261 173.153 29.8608 173.251 30.2415 173.447C30.625 173.641 30.9375 173.911 31.179 174.257C31.4205 174.604 31.5767 175.003 31.6477 175.455H30.608C30.5114 175.062 30.3239 174.737 30.0455 174.479C29.767 174.22 29.3977 174.091 28.9375 174.091C28.2614 174.091 27.7287 174.385 27.3395 174.973C26.9531 175.561 26.7585 176.386 26.7557 177.449H26.8239C26.983 177.207 27.1719 177.001 27.3906 176.831C27.6122 176.658 27.8565 176.524 28.1236 176.43C28.3906 176.337 28.6733 176.29 28.9716 176.29C29.4716 176.29 29.929 176.415 30.3438 176.665C30.7585 176.912 31.0909 177.254 31.3409 177.692C31.5909 178.126 31.7159 178.625 31.7159 179.188C31.7159 179.727 31.5952 180.222 31.3537 180.67C31.1122 181.116 30.7727 181.472 30.3352 181.736C29.9006 181.997 29.3892 182.125 28.8011 182.119ZM28.8011 181.182C29.1591 181.182 29.4801 181.092 29.7642 180.913C30.0511 180.734 30.277 180.494 30.4418 180.193C30.6094 179.892 30.6932 179.557 30.6932 179.188C30.6932 178.827 30.6122 178.499 30.4503 178.203C30.2912 177.905 30.071 177.668 29.7898 177.491C29.5114 177.315 29.1932 177.227 28.8352 177.227C28.5653 177.227 28.3139 177.281 28.081 177.389C27.848 177.494 27.6435 177.639 27.4673 177.824C27.294 178.009 27.1577 178.22 27.0582 178.459C26.9588 178.695 26.9091 178.943 26.9091 179.205C26.9091 179.551 26.9901 179.875 27.152 180.176C27.3168 180.477 27.5412 180.72 27.8253 180.905C28.1122 181.089 28.4375 181.182 28.8011 181.182ZM36.2383 182.119C35.5962 182.119 35.0494 181.945 34.5977 181.595C34.146 181.243 33.8008 180.733 33.5621 180.065C33.3235 179.395 33.2042 178.585 33.2042 177.636C33.2042 176.693 33.3235 175.888 33.5621 175.22C33.8036 174.55 34.1502 174.038 34.6019 173.686C35.0565 173.331 35.6019 173.153 36.2383 173.153C36.8746 173.153 37.4187 173.331 37.8704 173.686C38.3249 174.038 38.6715 174.55 38.9102 175.22C39.1516 175.888 39.2724 176.693 39.2724 177.636C39.2724 178.585 39.1531 179.395 38.9144 180.065C38.6758 180.733 38.3306 181.243 37.8789 181.595C37.4272 181.945 36.8803 182.119 36.2383 182.119ZM36.2383 181.182C36.8746 181.182 37.369 180.875 37.7212 180.261C38.0735 179.648 38.2496 178.773 38.2496 177.636C38.2496 176.881 38.1687 176.237 38.0067 175.706C37.8477 175.175 37.6175 174.77 37.3164 174.491C37.0181 174.213 36.6587 174.074 36.2383 174.074C35.6076 174.074 35.1147 174.385 34.7596 175.007C34.4045 175.626 34.2269 176.503 34.2269 177.636C34.2269 178.392 34.3065 179.034 34.4656 179.562C34.6246 180.091 34.8533 180.493 35.1516 180.768C35.4528 181.044 35.815 181.182 36.2383 181.182Z" fill="black"/>
<path d="M25.9034 278.276V277.508L28.7841 274.355C29.1222 273.986 29.4006 273.665 29.6193 273.392C29.8381 273.116 30 272.858 30.1051 272.616C30.2131 272.372 30.267 272.116 30.267 271.849C30.267 271.543 30.1932 271.277 30.0455 271.053C29.9006 270.828 29.7017 270.655 29.4489 270.533C29.196 270.41 28.9119 270.349 28.5966 270.349C28.2614 270.349 27.9688 270.419 27.7188 270.558C27.4716 270.695 27.2798 270.886 27.1435 271.133C27.0099 271.381 26.9432 271.67 26.9432 272.003H25.9375C25.9375 271.491 26.0554 271.043 26.2912 270.656C26.527 270.27 26.848 269.969 27.2543 269.753C27.6634 269.537 28.1222 269.429 28.6307 269.429C29.142 269.429 29.5952 269.537 29.9901 269.753C30.3849 269.969 30.6946 270.26 30.919 270.626C31.1435 270.993 31.2557 271.401 31.2557 271.849C31.2557 272.17 31.1974 272.484 31.081 272.791C30.9673 273.095 30.7685 273.435 30.4844 273.81C30.2031 274.182 29.8125 274.636 29.3125 275.173L27.3523 277.27V277.338H31.4091V278.276H25.9034ZM36.0156 278.395C35.3736 278.395 34.8267 278.22 34.375 277.871C33.9233 277.518 33.5781 277.008 33.3395 276.341C33.1009 275.67 32.9815 274.861 32.9815 273.912C32.9815 272.969 33.1009 272.163 33.3395 271.496C33.581 270.825 33.9276 270.314 34.3793 269.962C34.8338 269.606 35.3793 269.429 36.0156 269.429C36.652 269.429 37.196 269.606 37.6477 269.962C38.1023 270.314 38.4489 270.825 38.6875 271.496C38.929 272.163 39.0497 272.969 39.0497 273.912C39.0497 274.861 38.9304 275.67 38.6918 276.341C38.4531 277.008 38.108 277.518 37.6562 277.871C37.2045 278.22 36.6577 278.395 36.0156 278.395ZM36.0156 277.457C36.652 277.457 37.1463 277.151 37.4986 276.537C37.8509 275.923 38.027 275.048 38.027 273.912C38.027 273.156 37.946 272.513 37.7841 271.981C37.625 271.45 37.3949 271.045 37.0938 270.767C36.7955 270.489 36.4361 270.349 36.0156 270.349C35.3849 270.349 34.892 270.66 34.5369 271.283C34.1818 271.902 34.0043 272.778 34.0043 273.912C34.0043 274.668 34.0838 275.31 34.2429 275.838C34.402 276.366 34.6307 276.768 34.929 277.044C35.2301 277.32 35.5923 277.457 36.0156 277.457Z" fill="black"/>
<path d="M29.6705 369.719V370.656H25.8523V369.719H29.6705ZM31.0128 374.551V373.784L33.8935 370.631C34.2315 370.261 34.5099 369.94 34.7287 369.668C34.9474 369.392 35.1094 369.133 35.2145 368.892C35.3224 368.648 35.3764 368.392 35.3764 368.125C35.3764 367.818 35.3026 367.552 35.1548 367.328C35.0099 367.104 34.8111 366.93 34.5582 366.808C34.3054 366.686 34.0213 366.625 33.706 366.625C33.3707 366.625 33.0781 366.694 32.8281 366.834C32.581 366.97 32.3892 367.162 32.2528 367.409C32.1193 367.656 32.0526 367.946 32.0526 368.278H31.0469C31.0469 367.767 31.1648 367.318 31.4006 366.932C31.6364 366.545 31.9574 366.244 32.3636 366.028C32.7727 365.812 33.2315 365.704 33.7401 365.704C34.2514 365.704 34.7045 365.812 35.0994 366.028C35.4943 366.244 35.804 366.535 36.0284 366.902C36.2528 367.268 36.3651 367.676 36.3651 368.125C36.3651 368.446 36.3068 368.76 36.1903 369.067C36.0767 369.371 35.8778 369.71 35.5938 370.085C35.3125 370.457 34.9219 370.912 34.4219 371.449L32.4616 373.545V373.614H36.5185V374.551H31.0128ZM41.125 374.67C40.483 374.67 39.9361 374.496 39.4844 374.146C39.0327 373.794 38.6875 373.284 38.4489 372.616C38.2102 371.946 38.0909 371.136 38.0909 370.187C38.0909 369.244 38.2102 368.439 38.4489 367.771C38.6903 367.101 39.0369 366.589 39.4886 366.237C39.9432 365.882 40.4886 365.704 41.125 365.704C41.7614 365.704 42.3054 365.882 42.7571 366.237C43.2116 366.589 43.5582 367.101 43.7969 367.771C44.0384 368.439 44.1591 369.244 44.1591 370.187C44.1591 371.136 44.0398 371.946 43.8011 372.616C43.5625 373.284 43.2173 373.794 42.7656 374.146C42.3139 374.496 41.767 374.67 41.125 374.67ZM41.125 373.733C41.7614 373.733 42.2557 373.426 42.608 372.812C42.9602 372.199 43.1364 371.324 43.1364 370.187C43.1364 369.432 43.0554 368.788 42.8935 368.257C42.7344 367.726 42.5043 367.321 42.2031 367.043C41.9048 366.764 41.5455 366.625 41.125 366.625C40.4943 366.625 40.0014 366.936 39.6463 367.558C39.2912 368.177 39.1136 369.054 39.1136 370.187C39.1136 370.943 39.1932 371.585 39.3523 372.114C39.5114 372.642 39.7401 373.044 40.0384 373.319C40.3395 373.595 40.7017 373.733 41.125 373.733Z" fill="black"/>
<path d="M29.6705 465.994V466.932H25.8523V465.994H29.6705ZM34.3207 470.946C33.9627 470.94 33.6048 470.872 33.2468 470.741C32.8888 470.611 32.5621 470.39 32.2667 470.081C31.9712 469.768 31.734 469.346 31.555 468.815C31.3761 468.281 31.2866 467.611 31.2866 466.804C31.2866 466.031 31.359 465.346 31.5039 464.75C31.6488 464.15 31.859 463.646 32.1346 463.237C32.4102 462.825 32.7425 462.512 33.1317 462.299C33.5238 462.086 33.9656 461.98 34.457 461.98C34.9457 461.98 35.3803 462.078 35.761 462.274C36.1445 462.467 36.457 462.737 36.6985 463.084C36.94 463.43 37.0962 463.829 37.1673 464.281H36.1275C36.0309 463.889 35.8434 463.564 35.565 463.305C35.2866 463.047 34.9173 462.917 34.457 462.917C33.7809 462.917 33.2482 463.211 32.859 463.799C32.4727 464.387 32.2781 465.213 32.2752 466.275H32.3434C32.5025 466.034 32.6914 465.828 32.9102 465.657C33.1317 465.484 33.3761 465.351 33.6431 465.257C33.9102 465.163 34.1928 465.116 34.4911 465.116C34.9911 465.116 35.4485 465.241 35.8633 465.491C36.2781 465.738 36.6104 466.081 36.8604 466.518C37.1104 466.953 37.2354 467.451 37.2354 468.014C37.2354 468.554 37.1147 469.048 36.8732 469.497C36.6317 469.943 36.2923 470.298 35.8548 470.562C35.4201 470.824 34.9087 470.951 34.3207 470.946ZM34.3207 470.008C34.6786 470.008 34.9996 469.919 35.2837 469.74C35.5707 469.561 35.7965 469.321 35.9613 469.02C36.1289 468.718 36.2127 468.383 36.2127 468.014C36.2127 467.653 36.1317 467.325 35.9698 467.03C35.8107 466.731 35.5906 466.494 35.3093 466.318C35.0309 466.142 34.7127 466.054 34.3548 466.054C34.0849 466.054 33.8335 466.108 33.6005 466.216C33.3675 466.321 33.163 466.466 32.9869 466.65C32.8136 466.835 32.6772 467.047 32.5778 467.285C32.4783 467.521 32.4286 467.77 32.4286 468.031C32.4286 468.378 32.5096 468.701 32.6715 469.003C32.8363 469.304 33.0607 469.547 33.3448 469.731C33.6317 469.916 33.957 470.008 34.3207 470.008ZM41.7578 470.946C41.1158 470.946 40.5689 470.771 40.1172 470.422C39.6655 470.069 39.3203 469.559 39.0817 468.892C38.843 468.221 38.7237 467.412 38.7237 466.463C38.7237 465.52 38.843 464.714 39.0817 464.047C39.3232 463.376 39.6697 462.865 40.1214 462.512C40.576 462.157 41.1214 461.98 41.7578 461.98C42.3942 461.98 42.9382 462.157 43.3899 462.512C43.8445 462.865 44.1911 463.376 44.4297 464.047C44.6712 464.714 44.7919 465.52 44.7919 466.463C44.7919 467.412 44.6726 468.221 44.4339 468.892C44.1953 469.559 43.8501 470.069 43.3984 470.422C42.9467 470.771 42.3999 470.946 41.7578 470.946ZM41.7578 470.008C42.3942 470.008 42.8885 469.701 43.2408 469.088C43.593 468.474 43.7692 467.599 43.7692 466.463C43.7692 465.707 43.6882 465.064 43.5263 464.532C43.3672 464.001 43.1371 463.596 42.8359 463.318C42.5376 463.039 42.1783 462.9 41.7578 462.9C41.1271 462.9 40.6342 463.211 40.2791 463.834C39.924 464.453 39.7464 465.329 39.7464 466.463C39.7464 467.218 39.826 467.861 39.9851 468.389C40.1442 468.917 40.3729 469.319 40.6712 469.595C40.9723 469.87 41.3345 470.008 41.7578 470.008Z" fill="black"/>
<g clip-path="url(#clip2_168_502)">
<rect x="54.5" y="170.5" width="826" height="291" stroke="#F1F1F1" stroke-dasharray="2 2"/>
<path d="M54 267.333H881" stroke="#F1F1F1" stroke-dasharray="2 2"/>
<path d="M54 364.668H881" stroke="#F1F1F1" stroke-dasharray="2 2"/>
<path d="M266.515 170L266.515 458.958" stroke="#F1F1F1" stroke-dasharray="2 2"/>
<rect x="59.7432" y="403.828" width="34.4583" height="56.7193" fill="#7987FF"/>
<rect x="59.7432" y="388.702" width="34.4583" height="15.1251" fill="#FFA5CB"/>
<rect x="59.7432" y="352.78" width="34.4583" height="35.9222" fill="#E697FF"/>
<rect x="102.816" y="373.364" width="32.8642" height="87.1797" fill="#7987FF"/>
<rect x="102.816" y="350.117" width="32.8642" height="23.2479" fill="#FFA5CB"/>
<rect x="102.816" y="294.904" width="32.8642" height="55.2138" fill="#E697FF"/>
<rect x="143.909" y="347.716" width="32.8642" height="112.83" fill="#7987FF"/>
<rect x="143.909" y="317.624" width="32.8642" height="30.0881" fill="#FFA5CB"/>
<rect x="143.909" y="246.168" width="32.8642" height="71.4593" fill="#E697FF"/>
<rect x="184.981" y="307.635" width="32.8642" height="152.91" fill="#7987FF"/>
<rect x="184.981" y="266.858" width="32.8642" height="40.776" fill="#FFA5CB"/>
<rect x="184.981" y="170.016" width="32.8642" height="96.8429" fill="#E697FF"/>
<rect x="226.074" y="362.141" width="32.8642" height="98.4019" fill="#7987FF"/>
<rect x="226.074" y="335.901" width="32.8642" height="26.2405" fill="#FFA5CB"/>
<rect x="226.074" y="273.582" width="32.8642" height="62.3212" fill="#E697FF"/>
<rect x="264.383" y="403.828" width="32.8642" height="56.7193" fill="#7987FF"/>
<rect x="264.383" y="388.702" width="32.8642" height="15.1251" fill="#FFA5CB"/>
<rect x="264.383" y="352.78" width="32.8642" height="35.9222" fill="#E697FF"/>
<rect x="305.476" y="373.364" width="32.8642" height="87.1797" fill="#7987FF"/>
<rect x="305.476" y="350.119" width="32.8642" height="23.2479" fill="#FFA5CB"/>
<rect x="305.476" y="294.904" width="32.8642" height="55.2138" fill="#E697FF"/>
<rect x="346.569" y="347.716" width="32.8642" height="112.83" fill="#7987FF"/>
<rect x="346.569" y="317.624" width="32.8642" height="30.0881" fill="#FFA5CB"/>
<rect x="346.569" y="246.168" width="32.8642" height="71.4593" fill="#E697FF"/>
<rect x="387.641" y="307.635" width="32.8642" height="152.91" fill="#7987FF"/>
<rect x="387.641" y="266.858" width="32.8642" height="40.776" fill="#FFA5CB"/>
<rect x="387.641" y="170.016" width="32.8642" height="96.8429" fill="#E697FF"/>
<rect x="428.734" y="362.141" width="32.8642" height="98.4019" fill="#7987FF"/>
<rect x="428.734" y="335.901" width="32.8642" height="26.2405" fill="#FFA5CB"/>
<rect x="428.734" y="273.582" width="32.8642" height="62.3212" fill="#E697FF"/>
</g>
</g>
<path d="M75.607 67.448C76.205 65.698 78.623 65.645 79.332 67.289L79.392 67.449L80.199 69.809C80.384 70.3502 80.6828 70.8455 81.0754 71.2614C81.4681 71.6773 81.9453 72.0042 82.475 72.22L82.692 72.301L85.052 73.107C86.802 73.705 86.855 76.123 85.212 76.832L85.052 76.892L82.692 77.699C82.1506 77.8838 81.6551 78.1826 81.239 78.5753C80.8229 78.9679 80.4959 79.4452 80.28 79.975L80.199 80.191L79.393 82.552C78.795 84.302 76.377 84.355 75.669 82.712L75.607 82.552L74.801 80.192C74.6162 79.6506 74.3174 79.1551 73.9248 78.739C73.5321 78.3229 73.0548 77.9959 72.525 77.78L72.309 77.699L69.949 76.893C68.198 76.295 68.145 73.877 69.789 73.169L69.949 73.107L72.309 72.301C72.8502 72.1161 73.3455 71.8172 73.7614 71.4246C74.1773 71.0319 74.5042 70.5547 74.72 70.025L74.801 69.809L75.607 67.448ZM85.5 64C85.6871 64 85.8704 64.0525 86.0292 64.1515C86.1879 64.2505 86.3157 64.392 86.398 64.56L86.446 64.677L86.796 65.703L87.823 66.053C88.0105 66.1167 88.1748 66.2346 88.2952 66.3918C88.4156 66.549 88.4867 66.7384 88.4993 66.936C88.5119 67.1336 88.4656 67.3305 88.3662 67.5018C88.2668 67.673 88.1189 67.8109 87.941 67.898L87.823 67.946L86.797 68.296L86.447 69.323C86.3832 69.5104 86.2652 69.6747 86.1079 69.795C85.9507 69.9153 85.7612 69.9862 85.5637 69.9987C85.3661 70.0113 85.1692 69.9648 84.998 69.8654C84.8268 69.7659 84.689 69.6179 84.602 69.44L84.554 69.323L84.204 68.297L83.177 67.947C82.9895 67.8833 82.8252 67.7654 82.7048 67.6082C82.5844 67.451 82.5134 67.2616 82.5007 67.064C82.4881 66.8664 82.5344 66.6695 82.6338 66.4982C82.7332 66.327 82.8812 66.1891 83.059 66.102L83.177 66.054L84.203 65.704L84.553 64.677C84.6204 64.4794 84.748 64.3079 84.9178 64.1865C85.0877 64.0651 85.2912 63.9999 85.5 64Z" fill="url(#paint0_linear_168_502)"/>
<path d="M98.8625 81L102.606 69.48H105.014L108.758 81H107.022L103.574 70.488H104.006L100.598 81H98.8625ZM100.806 78.4V76.832H106.822V78.4H100.806ZM109.714 81V69.48H111.386V81H109.714ZM115.871 70.944V69.32H117.543V70.944H115.871ZM115.871 81V72.36H117.543V81H115.871ZM122.61 81.232C121.559 81.232 120.703 81 120.042 80.536C119.38 80.072 118.975 79.4187 118.826 78.576L120.538 78.312C120.644 78.76 120.89 79.1147 121.274 79.376C121.663 79.632 122.146 79.76 122.722 79.76C123.244 79.76 123.652 79.6533 123.946 79.44C124.244 79.2267 124.394 78.9333 124.394 78.56C124.394 78.3413 124.34 78.1653 124.234 78.032C124.132 77.8933 123.916 77.7627 123.586 77.64C123.255 77.5173 122.751 77.3653 122.074 77.184C121.332 76.992 120.743 76.7867 120.306 76.568C119.874 76.344 119.564 76.0853 119.378 75.792C119.196 75.4933 119.106 75.1333 119.106 74.712C119.106 74.1893 119.244 73.7333 119.522 73.344C119.799 72.9547 120.188 72.6533 120.69 72.44C121.196 72.2267 121.788 72.12 122.466 72.12C123.127 72.12 123.716 72.224 124.234 72.432C124.751 72.64 125.17 72.936 125.49 73.32C125.81 73.6987 126.002 74.144 126.066 74.656L124.354 74.968C124.295 74.552 124.1 74.224 123.77 73.984C123.439 73.744 123.01 73.6133 122.482 73.592C121.975 73.5707 121.564 73.656 121.25 73.848C120.935 74.0347 120.778 74.2933 120.778 74.624C120.778 74.816 120.836 74.9787 120.954 75.112C121.076 75.2453 121.311 75.3733 121.658 75.496C122.004 75.6187 122.516 75.7653 123.194 75.936C123.919 76.1227 124.495 76.3307 124.922 76.56C125.348 76.784 125.652 77.0533 125.834 77.368C126.02 77.6773 126.114 78.0533 126.114 78.496C126.114 79.3493 125.802 80.0187 125.178 80.504C124.559 80.9893 123.703 81.232 122.61 81.232ZM133.863 81.24C133.036 81.24 132.343 81.04 131.783 80.64C131.223 80.2347 130.799 79.688 130.511 79C130.223 78.312 130.079 77.536 130.079 76.672C130.079 75.808 130.22 75.032 130.503 74.344C130.791 73.656 131.212 73.1147 131.767 72.72C132.327 72.32 133.015 72.12 133.831 72.12C134.642 72.12 135.34 72.32 135.927 72.72C136.519 73.1147 136.975 73.656 137.295 74.344C137.615 75.0267 137.775 75.8027 137.775 76.672C137.775 77.536 137.615 78.3147 137.295 79.008C136.98 79.696 136.53 80.24 135.943 80.64C135.362 81.04 134.668 81.24 133.863 81.24ZM129.799 84.84V72.36H131.287V78.576H131.479V84.84H129.799ZM133.631 79.728C134.164 79.728 134.604 79.592 134.951 79.32C135.303 79.048 135.564 78.6827 135.735 78.224C135.911 77.76 135.999 77.2427 135.999 76.672C135.999 76.1067 135.911 75.5947 135.735 75.136C135.564 74.6773 135.3 74.312 134.943 74.04C134.586 73.768 134.13 73.632 133.575 73.632C133.052 73.632 132.62 73.76 132.279 74.016C131.943 74.272 131.692 74.6293 131.527 75.088C131.367 75.5467 131.287 76.0747 131.287 76.672C131.287 77.2693 131.367 77.7973 131.527 78.256C131.687 78.7147 131.94 79.0747 132.287 79.336C132.634 79.5973 133.082 79.728 133.631 79.728ZM138.901 81V72.36H140.389V74.456L140.181 74.184C140.288 73.9067 140.427 73.6533 140.597 73.424C140.768 73.1893 140.965 72.9973 141.189 72.848C141.408 72.688 141.651 72.5653 141.917 72.48C142.189 72.3893 142.467 72.336 142.749 72.32C143.032 72.2987 143.304 72.312 143.565 72.36V73.928C143.283 73.8533 142.968 73.832 142.621 73.864C142.28 73.896 141.965 74.0053 141.677 74.192C141.405 74.368 141.189 74.5813 141.029 74.832C140.875 75.0827 140.763 75.3627 140.693 75.672C140.624 75.976 140.589 76.2987 140.589 76.64V81H138.901ZM148.124 81.24C147.266 81.24 146.511 81.0533 145.86 80.68C145.215 80.3013 144.711 79.776 144.348 79.104C143.991 78.4267 143.812 77.6427 143.812 76.752C143.812 75.808 143.988 74.9893 144.34 74.296C144.698 73.6027 145.194 73.0667 145.828 72.688C146.463 72.3093 147.202 72.12 148.044 72.12C148.924 72.12 149.674 72.3253 150.292 72.736C150.911 73.1413 151.372 73.72 151.676 74.472C151.986 75.224 152.108 76.1173 152.044 77.152H150.372V76.544C150.362 75.5413 150.17 74.8 149.796 74.32C149.428 73.84 148.866 73.6 148.108 73.6C147.271 73.6 146.642 73.864 146.22 74.392C145.799 74.92 145.588 75.6827 145.588 76.68C145.588 77.6293 145.799 78.3653 146.22 78.888C146.642 79.4053 147.25 79.664 148.044 79.664C148.567 79.664 149.018 79.5467 149.396 79.312C149.78 79.072 150.079 78.7307 150.292 78.288L151.932 78.808C151.596 79.5813 151.087 80.1813 150.404 80.608C149.722 81.0293 148.962 81.24 148.124 81.24ZM145.044 77.152V75.848H151.212V77.152H145.044ZM156.631 81.24C155.826 81.24 155.13 81.04 154.543 80.64C153.962 80.24 153.511 79.696 153.191 79.008C152.877 78.3147 152.719 77.536 152.719 76.672C152.719 75.8027 152.879 75.0267 153.199 74.344C153.519 73.656 153.973 73.1147 154.559 72.72C155.151 72.32 155.853 72.12 156.663 72.12C157.479 72.12 158.165 72.32 158.719 72.72C159.279 73.1147 159.701 73.656 159.983 74.344C160.271 75.032 160.415 75.808 160.415 76.672C160.415 77.536 160.271 78.312 159.983 79C159.695 79.688 159.271 80.2347 158.711 80.64C158.151 81.04 157.458 81.24 156.631 81.24ZM156.863 79.728C157.413 79.728 157.861 79.5973 158.207 79.336C158.554 79.0747 158.807 78.7147 158.967 78.256C159.127 77.7973 159.207 77.2693 159.207 76.672C159.207 76.0747 159.125 75.5467 158.959 75.088C158.799 74.6293 158.549 74.272 158.207 74.016C157.871 73.76 157.442 73.632 156.919 73.632C156.365 73.632 155.909 73.768 155.551 74.04C155.194 74.312 154.927 74.6773 154.751 75.136C154.581 75.5947 154.495 76.1067 154.495 76.672C154.495 77.2427 154.581 77.76 154.751 78.224C154.927 78.6827 155.189 79.048 155.535 79.32C155.887 79.592 156.33 79.728 156.863 79.728ZM159.207 81V74.784H159.015V69.48H160.695V81H159.207ZM162.454 70.944V69.32H164.126V70.944H162.454ZM162.454 81V72.36H164.126V81H162.454ZM169.584 81.24C168.699 81.24 167.947 81.0427 167.328 80.648C166.709 80.2533 166.235 79.712 165.904 79.024C165.579 78.336 165.413 77.5547 165.408 76.68C165.413 75.7893 165.584 75.0027 165.92 74.32C166.256 73.632 166.736 73.0933 167.36 72.704C167.984 72.3147 168.733 72.12 169.608 72.12C170.552 72.12 171.357 72.3547 172.024 72.824C172.696 73.2933 173.139 73.936 173.352 74.752L171.688 75.232C171.523 74.7467 171.251 74.3707 170.872 74.104C170.499 73.832 170.069 73.696 169.584 73.696C169.035 73.696 168.584 73.8267 168.232 74.088C167.88 74.344 167.619 74.696 167.448 75.144C167.277 75.592 167.189 76.104 167.184 76.68C167.189 77.5707 167.392 78.2907 167.792 78.84C168.197 79.3893 168.795 79.664 169.584 79.664C170.123 79.664 170.557 79.5413 170.888 79.296C171.224 79.0453 171.48 78.688 171.656 78.224L173.352 78.624C173.069 79.4667 172.603 80.1147 171.952 80.568C171.301 81.016 170.512 81.24 169.584 81.24ZM179.286 81C178.742 81.1067 178.209 81.152 177.686 81.136C177.163 81.12 176.697 81.0187 176.286 80.832C175.875 80.6453 175.566 80.352 175.358 79.952C175.171 79.5947 175.07 79.232 175.054 78.864C175.043 78.4907 175.038 78.0693 175.038 77.6V69.96H176.718V77.52C176.718 77.8667 176.721 78.168 176.726 78.424C176.737 78.68 176.793 78.896 176.894 79.072C177.086 79.4027 177.39 79.592 177.806 79.64C178.227 79.6827 178.721 79.664 179.286 79.584V81ZM173.382 73.704V72.36H179.286V73.704H173.382ZM180.627 70.944V69.32H182.299V70.944H180.627ZM180.627 81V72.36H182.299V81H180.627ZM190.126 81V76.752C190.126 76.416 190.097 76.072 190.038 75.72C189.985 75.3627 189.878 75.032 189.718 74.728C189.563 74.424 189.342 74.1787 189.054 73.992C188.771 73.8053 188.401 73.712 187.942 73.712C187.643 73.712 187.361 73.7627 187.094 73.864C186.827 73.96 186.593 74.1173 186.39 74.336C186.193 74.5547 186.035 74.8427 185.918 75.2C185.806 75.5573 185.75 75.992 185.75 76.504L184.71 76.112C184.71 75.328 184.857 74.6373 185.15 74.04C185.443 73.4373 185.865 72.968 186.414 72.632C186.963 72.296 187.627 72.128 188.406 72.128C189.003 72.128 189.505 72.224 189.91 72.416C190.315 72.608 190.643 72.8613 190.894 73.176C191.15 73.4853 191.345 73.824 191.478 74.192C191.611 74.56 191.702 74.92 191.75 75.272C191.798 75.624 191.822 75.9333 191.822 76.2V81H190.126ZM184.054 81V72.36H185.55V74.856H185.75V81H184.054ZM196.826 85.08C196.362 85.08 195.911 85.008 195.474 84.864C195.042 84.72 194.647 84.5067 194.29 84.224C193.932 83.9467 193.636 83.6027 193.402 83.192L194.946 82.408C195.132 82.776 195.399 83.0453 195.746 83.216C196.092 83.3867 196.458 83.472 196.842 83.472C197.316 83.472 197.722 83.3867 198.058 83.216C198.394 83.0507 198.647 82.8 198.818 82.464C198.994 82.128 199.079 81.712 199.074 81.216V78.8H199.274V72.36H200.754V81.232C200.754 81.4613 200.746 81.68 200.73 81.888C200.714 82.096 200.684 82.304 200.642 82.512C200.519 83.0933 200.284 83.5733 199.938 83.952C199.596 84.3307 199.159 84.6133 198.626 84.8C198.098 84.9867 197.498 85.08 196.826 85.08ZM196.698 81.24C195.892 81.24 195.196 81.04 194.61 80.64C194.028 80.24 193.578 79.696 193.258 79.008C192.943 78.3147 192.786 77.536 192.786 76.672C192.786 75.8027 192.946 75.0267 193.266 74.344C193.586 73.656 194.039 73.1147 194.626 72.72C195.218 72.32 195.919 72.12 196.73 72.12C197.546 72.12 198.231 72.32 198.786 72.72C199.346 73.1147 199.767 73.656 200.05 74.344C200.338 75.032 200.482 75.808 200.482 76.672C200.482 77.536 200.338 78.312 200.05 79C199.762 79.688 199.338 80.2347 198.778 80.64C198.218 81.04 197.524 81.24 196.698 81.24ZM196.93 79.728C197.479 79.728 197.927 79.5973 198.274 79.336C198.62 79.0747 198.874 78.7147 199.034 78.256C199.194 77.7973 199.274 77.2693 199.274 76.672C199.274 76.0747 199.191 75.5467 199.026 75.088C198.866 74.6293 198.615 74.272 198.274 74.016C197.938 73.76 197.508 73.632 196.986 73.632C196.431 73.632 195.975 73.768 195.618 74.04C195.26 74.312 194.994 74.6773 194.818 75.136C194.647 75.5947 194.562 76.1067 194.562 76.672C194.562 77.2427 194.647 77.76 194.818 78.224C194.994 78.6827 195.255 79.048 195.602 79.32C195.954 79.592 196.396 79.728 196.93 79.728ZM207.363 81.24C206.723 81.24 206.187 81.1227 205.755 80.888C205.323 80.648 204.995 80.3333 204.771 79.944C204.552 79.5493 204.443 79.1173 204.443 78.648C204.443 78.2107 204.52 77.8267 204.675 77.496C204.83 77.1653 205.059 76.8853 205.363 76.656C205.667 76.4213 206.04 76.232 206.483 76.088C206.867 75.976 207.302 75.8773 207.787 75.792C208.272 75.7067 208.782 75.6267 209.315 75.552C209.854 75.4773 210.387 75.4027 210.915 75.328L210.307 75.664C210.318 74.9867 210.174 74.4853 209.875 74.16C209.582 73.8293 209.075 73.664 208.355 73.664C207.902 73.664 207.486 73.7707 207.107 73.984C206.728 74.192 206.464 74.5387 206.315 75.024L204.755 74.544C204.968 73.8027 205.374 73.2133 205.971 72.776C206.574 72.3387 207.374 72.12 208.371 72.12C209.144 72.12 209.816 72.2533 210.387 72.52C210.963 72.7813 211.384 73.1973 211.651 73.768C211.79 74.0507 211.875 74.3493 211.907 74.664C211.939 74.9787 211.955 75.3173 211.955 75.68V81H210.475V79.024L210.763 79.28C210.406 79.9413 209.95 80.4347 209.395 80.76C208.846 81.08 208.168 81.24 207.363 81.24ZM207.659 79.872C208.134 79.872 208.542 79.7893 208.883 79.624C209.224 79.4533 209.499 79.2373 209.707 78.976C209.915 78.7147 210.051 78.4427 210.115 78.16C210.206 77.904 210.256 77.616 210.267 77.296C210.283 76.976 210.291 76.72 210.291 76.528L210.835 76.728C210.307 76.808 209.827 76.88 209.395 76.944C208.963 77.008 208.571 77.072 208.219 77.136C207.872 77.1947 207.563 77.2667 207.291 77.352C207.062 77.432 206.856 77.528 206.675 77.64C206.499 77.752 206.358 77.888 206.251 78.048C206.15 78.208 206.099 78.4027 206.099 78.632C206.099 78.856 206.155 79.064 206.267 79.256C206.379 79.4427 206.55 79.592 206.779 79.704C207.008 79.816 207.302 79.872 207.659 79.872ZM219.388 81.24C218.582 81.24 217.886 81.04 217.3 80.64C216.718 80.24 216.268 79.696 215.948 79.008C215.633 78.3147 215.476 77.536 215.476 76.672C215.476 75.8027 215.636 75.0267 215.956 74.344C216.276 73.656 216.729 73.1147 217.316 72.72C217.908 72.32 218.609 72.12 219.42 72.12C220.236 72.12 220.921 72.32 221.476 72.72C222.036 73.1147 222.457 73.656 222.74 74.344C223.028 75.032 223.172 75.808 223.172 76.672C223.172 77.536 223.028 78.312 222.74 79C222.452 79.688 222.028 80.2347 221.468 80.64C220.908 81.04 220.214 81.24 219.388 81.24ZM219.62 79.728C220.169 79.728 220.617 79.5973 220.964 79.336C221.31 79.0747 221.564 78.7147 221.724 78.256C221.884 77.7973 221.964 77.2693 221.964 76.672C221.964 76.0747 221.881 75.5467 221.716 75.088C221.556 74.6293 221.305 74.272 220.964 74.016C220.628 73.76 220.198 73.632 219.676 73.632C219.121 73.632 218.665 73.768 218.308 74.04C217.95 74.312 217.684 74.6773 217.508 75.136C217.337 75.5947 217.252 76.1067 217.252 76.672C217.252 77.2427 217.337 77.76 217.508 78.224C217.684 78.6827 217.945 79.048 218.292 79.32C218.644 79.592 219.086 79.728 219.62 79.728ZM221.964 81V74.784H221.772V69.48H223.452V81H221.964ZM225.05 81V72.36H226.538V74.456L226.33 74.184C226.437 73.9067 226.575 73.6533 226.746 73.424C226.917 73.1893 227.114 72.9973 227.338 72.848C227.557 72.688 227.799 72.5653 228.066 72.48C228.338 72.3893 228.615 72.336 228.898 72.32C229.181 72.2987 229.453 72.312 229.714 72.36V73.928C229.431 73.8533 229.117 73.832 228.77 73.864C228.429 73.896 228.114 74.0053 227.826 74.192C227.554 74.368 227.338 74.5813 227.178 74.832C227.023 75.0827 226.911 75.3627 226.842 75.672C226.773 75.976 226.738 76.2987 226.738 76.64V81H225.05ZM234.193 81.24C233.329 81.24 232.58 81.0453 231.945 80.656C231.311 80.2667 230.82 79.7307 230.473 79.048C230.132 78.36 229.961 77.568 229.961 76.672C229.961 75.7707 230.137 74.9787 230.489 74.296C230.841 73.608 231.335 73.0747 231.969 72.696C232.604 72.312 233.345 72.12 234.193 72.12C235.057 72.12 235.807 72.3147 236.441 72.704C237.076 73.0933 237.567 73.6293 237.913 74.312C238.26 74.9947 238.433 75.7813 238.433 76.672C238.433 77.5733 238.257 78.368 237.905 79.056C237.559 79.7387 237.068 80.2747 236.433 80.664C235.799 81.048 235.052 81.24 234.193 81.24ZM234.193 79.664C235.02 79.664 235.636 79.3867 236.041 78.832C236.452 78.272 236.657 77.552 236.657 76.672C236.657 75.7707 236.449 75.0507 236.033 74.512C235.623 73.968 235.009 73.696 234.193 73.696C233.633 73.696 233.172 73.824 232.809 74.08C232.447 74.3307 232.177 74.68 232.001 75.128C231.825 75.5707 231.737 76.0853 231.737 76.672C231.737 77.5787 231.945 78.304 232.361 78.848C232.777 79.392 233.388 79.664 234.193 79.664ZM243.607 81.24C242.781 81.24 242.087 81.04 241.527 80.64C240.967 80.2347 240.543 79.688 240.255 79C239.967 78.312 239.823 77.536 239.823 76.672C239.823 75.808 239.965 75.032 240.247 74.344C240.535 73.656 240.957 73.1147 241.511 72.72C242.071 72.32 242.759 72.12 243.575 72.12C244.386 72.12 245.085 72.32 245.671 72.72C246.263 73.1147 246.719 73.656 247.039 74.344C247.359 75.0267 247.519 75.8027 247.519 76.672C247.519 77.536 247.359 78.3147 247.039 79.008C246.725 79.696 246.274 80.24 245.687 80.64C245.106 81.04 244.413 81.24 243.607 81.24ZM239.543 84.84V72.36H241.031V78.576H241.223V84.84H239.543ZM243.375 79.728C243.909 79.728 244.349 79.592 244.695 79.32C245.047 79.048 245.309 78.6827 245.479 78.224C245.655 77.76 245.743 77.2427 245.743 76.672C245.743 76.1067 245.655 75.5947 245.479 75.136C245.309 74.6773 245.045 74.312 244.687 74.04C244.33 73.768 243.874 73.632 243.319 73.632C242.797 73.632 242.365 73.76 242.023 74.016C241.687 74.272 241.437 74.6293 241.271 75.088C241.111 75.5467 241.031 76.0747 241.031 76.672C241.031 77.2693 241.111 77.7973 241.271 78.256C241.431 78.7147 241.685 79.0747 242.031 79.336C242.378 79.5973 242.826 79.728 243.375 79.728ZM254.961 81.24C254.097 81.24 253.347 81.0453 252.713 80.656C252.078 80.2667 251.587 79.7307 251.241 79.048C250.899 78.36 250.729 77.568 250.729 76.672C250.729 75.7707 250.905 74.9787 251.257 74.296C251.609 73.608 252.102 73.0747 252.737 72.696C253.371 72.312 254.113 72.12 254.961 72.12C255.825 72.12 256.574 72.3147 257.209 72.704C257.843 73.0933 258.334 73.6293 258.681 74.312C259.027 74.9947 259.201 75.7813 259.201 76.672C259.201 77.5733 259.025 78.368 258.673 79.056C258.326 79.7387 257.835 80.2747 257.201 80.664C256.566 81.048 255.819 81.24 254.961 81.24ZM254.961 79.664C255.787 79.664 256.403 79.3867 256.809 78.832C257.219 78.272 257.425 77.552 257.425 76.672C257.425 75.7707 257.217 75.0507 256.801 74.512C256.39 73.968 255.777 73.696 254.961 73.696C254.401 73.696 253.939 73.824 253.577 74.08C253.214 74.3307 252.945 74.68 252.769 75.128C252.593 75.5707 252.505 76.0853 252.505 76.672C252.505 77.5787 252.713 78.304 253.129 78.848C253.545 79.392 254.155 79.664 254.961 79.664ZM261.111 81V72.056C261.111 71.8373 261.119 71.6053 261.135 71.36C261.151 71.1093 261.196 70.864 261.271 70.624C261.351 70.3787 261.481 70.1547 261.663 69.952C261.881 69.712 262.121 69.5413 262.383 69.44C262.644 69.3387 262.903 69.28 263.159 69.264C263.42 69.248 263.66 69.24 263.879 69.24H264.967V70.616H263.959C263.564 70.616 263.268 70.7147 263.071 70.912C262.879 71.104 262.783 71.3787 262.783 71.736V81H261.111ZM259.679 73.704V72.36H264.967V73.704H259.679ZM270.172 81V71.32L268.004 72.64V70.776L270.172 69.48H271.876V81H270.172ZM278.29 81.24C277.506 81.24 276.812 81.0693 276.21 80.728C275.607 80.3813 275.132 79.9067 274.786 79.304C274.444 78.7013 274.274 78.008 274.274 77.224V73.256C274.274 72.472 274.444 71.7787 274.786 71.176C275.132 70.5733 275.607 70.1013 276.21 69.76C276.812 69.4133 277.506 69.24 278.29 69.24C279.074 69.24 279.767 69.4133 280.37 69.76C280.972 70.1013 281.444 70.5733 281.786 71.176C282.132 71.7787 282.306 72.472 282.306 73.256V77.224C282.306 78.008 282.132 78.7013 281.786 79.304C281.444 79.9067 280.972 80.3813 280.37 80.728C279.767 81.0693 279.074 81.24 278.29 81.24ZM278.29 79.64C278.716 79.64 279.103 79.5387 279.45 79.336C279.802 79.128 280.082 78.8507 280.29 78.504C280.498 78.152 280.602 77.76 280.602 77.328V73.136C280.602 72.7093 280.498 72.3227 280.29 71.976C280.082 71.624 279.802 71.3467 279.45 71.144C279.103 70.936 278.716 70.832 278.29 70.832C277.863 70.832 277.474 70.936 277.122 71.144C276.775 71.3467 276.498 71.624 276.29 71.976C276.082 72.3227 275.978 72.7093 275.978 73.136V77.328C275.978 77.76 276.082 78.152 276.29 78.504C276.498 78.8507 276.775 79.128 277.122 79.336C277.474 79.5387 277.863 79.64 278.29 79.64ZM285.339 81L284.219 79.88L294.627 69.48L295.747 70.608L285.339 81ZM293.347 81.24C292.819 81.24 292.337 81.112 291.899 80.856C291.467 80.5947 291.121 80.248 290.859 79.816C290.598 79.3787 290.467 78.8933 290.467 78.36C290.467 77.8373 290.601 77.3573 290.867 76.92C291.134 76.4827 291.486 76.1333 291.923 75.872C292.361 75.6107 292.835 75.48 293.347 75.48C293.875 75.48 294.358 75.6107 294.795 75.872C295.233 76.128 295.579 76.4747 295.835 76.912C296.097 77.344 296.227 77.8267 296.227 78.36C296.227 78.8933 296.097 79.3787 295.835 79.816C295.579 80.248 295.233 80.5947 294.795 80.856C294.358 81.112 293.875 81.24 293.347 81.24ZM293.347 79.792C293.609 79.792 293.846 79.728 294.059 79.6C294.278 79.4667 294.451 79.2907 294.579 79.072C294.713 78.8533 294.779 78.616 294.779 78.36C294.779 78.104 294.713 77.8667 294.579 77.648C294.451 77.4293 294.278 77.256 294.059 77.128C293.846 76.9947 293.609 76.928 293.347 76.928C293.091 76.928 292.854 76.9947 292.635 77.128C292.422 77.256 292.249 77.4293 292.115 77.648C291.987 77.8667 291.923 78.104 291.923 78.36C291.923 78.616 291.987 78.8533 292.115 79.072C292.249 79.2907 292.422 79.4667 292.635 79.6C292.854 79.728 293.091 79.792 293.347 79.792ZM286.619 75C286.091 75 285.609 74.872 285.171 74.616C284.734 74.3547 284.385 74.008 284.123 73.576C283.867 73.1387 283.739 72.6533 283.739 72.12C283.739 71.5973 283.873 71.1173 284.139 70.68C284.406 70.2427 284.758 69.8933 285.195 69.632C285.633 69.3707 286.107 69.24 286.619 69.24C287.147 69.24 287.627 69.3707 288.059 69.632C288.497 69.888 288.846 70.2347 289.107 70.672C289.369 71.104 289.499 71.5867 289.499 72.12C289.499 72.6533 289.369 73.1387 289.107 73.576C288.846 74.008 288.497 74.3547 288.059 74.616C287.627 74.872 287.147 75 286.619 75ZM286.619 73.552C286.875 73.552 287.113 73.488 287.331 73.36C287.55 73.2267 287.723 73.0507 287.851 72.832C287.985 72.6133 288.051 72.376 288.051 72.12C288.051 71.864 287.985 71.6267 287.851 71.408C287.723 71.1893 287.55 71.016 287.331 70.888C287.113 70.7547 286.875 70.688 286.619 70.688C286.363 70.688 286.126 70.7547 285.907 70.888C285.694 71.016 285.521 71.1893 285.387 71.408C285.254 71.6267 285.187 71.864 285.187 72.12C285.187 72.376 285.254 72.6133 285.387 72.832C285.521 73.0507 285.694 73.2267 285.907 73.36C286.121 73.488 286.358 73.552 286.619 73.552ZM306.293 81V76.752C306.293 76.416 306.263 76.072 306.205 75.72C306.151 75.3627 306.045 75.032 305.885 74.728C305.73 74.424 305.509 74.1787 305.221 73.992C304.938 73.8053 304.567 73.712 304.109 73.712C303.81 73.712 303.527 73.7627 303.261 73.864C302.994 73.96 302.759 74.1173 302.557 74.336C302.359 74.5547 302.202 74.8427 302.085 75.2C301.973 75.5573 301.917 75.992 301.917 76.504L300.877 76.112C300.877 75.328 301.023 74.6373 301.317 74.04C301.61 73.4373 302.031 72.968 302.581 72.632C303.13 72.296 303.794 72.128 304.573 72.128C305.17 72.128 305.671 72.224 306.077 72.416C306.482 72.608 306.81 72.8613 307.061 73.176C307.317 73.4853 307.511 73.824 307.645 74.192C307.778 74.56 307.869 74.92 307.917 75.272C307.965 75.624 307.989 75.9333 307.989 76.2V81H306.293ZM300.221 81V72.36H301.717V74.856H301.917V81H300.221ZM313.155 81.24C312.296 81.24 311.542 81.0533 310.891 80.68C310.246 80.3013 309.742 79.776 309.379 79.104C309.022 78.4267 308.843 77.6427 308.843 76.752C308.843 75.808 309.019 74.9893 309.371 74.296C309.728 73.6027 310.224 73.0667 310.859 72.688C311.494 72.3093 312.232 72.12 313.075 72.12C313.955 72.12 314.704 72.3253 315.323 72.736C315.942 73.1413 316.403 73.72 316.707 74.472C317.016 75.224 317.139 76.1173 317.075 77.152H315.403V76.544C315.392 75.5413 315.2 74.8 314.827 74.32C314.459 73.84 313.896 73.6 313.139 73.6C312.302 73.6 311.672 73.864 311.251 74.392C310.83 74.92 310.619 75.6827 310.619 76.68C310.619 77.6293 310.83 78.3653 311.251 78.888C311.672 79.4053 312.28 79.664 313.075 79.664C313.598 79.664 314.048 79.5467 314.427 79.312C314.811 79.072 315.11 78.7307 315.323 78.288L316.963 78.808C316.627 79.5813 316.118 80.1813 315.435 80.608C314.752 81.0293 313.992 81.24 313.155 81.24ZM310.075 77.152V75.848H316.243V77.152H310.075ZM316.958 81L320.19 76.632L317.03 72.36H319.014L321.166 75.328L323.294 72.36H325.278L322.118 76.632L325.358 81H323.366L321.166 77.936L318.95 81H316.958ZM330.94 81C330.396 81.1067 329.863 81.152 329.34 81.136C328.818 81.12 328.351 81.0187 327.94 80.832C327.53 80.6453 327.22 80.352 327.012 79.952C326.826 79.5947 326.724 79.232 326.708 78.864C326.698 78.4907 326.692 78.0693 326.692 77.6V69.96H328.372V77.52C328.372 77.8667 328.375 78.168 328.38 78.424C328.391 78.68 328.447 78.896 328.548 79.072C328.74 79.4027 329.044 79.592 329.46 79.64C329.882 79.6827 330.375 79.664 330.94 79.584V81ZM325.036 73.704V72.36H330.94V73.704H325.036ZM336.525 81L333.885 72.352L335.541 72.36L337.349 78.288L339.173 72.36H340.613L342.437 78.288L344.245 72.36H345.893L343.253 81H341.909L339.893 74.744L337.869 81H336.525ZM350.205 81.24C349.346 81.24 348.592 81.0533 347.941 80.68C347.296 80.3013 346.792 79.776 346.429 79.104C346.072 78.4267 345.893 77.6427 345.893 76.752C345.893 75.808 346.069 74.9893 346.421 74.296C346.778 73.6027 347.274 73.0667 347.909 72.688C348.544 72.3093 349.282 72.12 350.125 72.12C351.005 72.12 351.754 72.3253 352.373 72.736C352.992 73.1413 353.453 73.72 353.757 74.472C354.066 75.224 354.189 76.1173 354.125 77.152H352.453V76.544C352.442 75.5413 352.25 74.8 351.877 74.32C351.509 73.84 350.946 73.6 350.189 73.6C349.352 73.6 348.722 73.864 348.301 74.392C347.88 74.92 347.669 75.6827 347.669 76.68C347.669 77.6293 347.88 78.3653 348.301 78.888C348.722 79.4053 349.33 79.664 350.125 79.664C350.648 79.664 351.098 79.5467 351.477 79.312C351.861 79.072 352.16 78.7307 352.373 78.288L354.013 78.808C353.677 79.5813 353.168 80.1813 352.485 80.608C351.802 81.0293 351.042 81.24 350.205 81.24ZM347.125 77.152V75.848H353.293V77.152H347.125ZM359.112 81.24C358.253 81.24 357.499 81.0533 356.848 80.68C356.203 80.3013 355.699 79.776 355.336 79.104C354.979 78.4267 354.8 77.6427 354.8 76.752C354.8 75.808 354.976 74.9893 355.328 74.296C355.685 73.6027 356.181 73.0667 356.816 72.688C357.451 72.3093 358.189 72.12 359.032 72.12C359.912 72.12 360.661 72.3253 361.28 72.736C361.899 73.1413 362.36 73.72 362.664 74.472C362.973 75.224 363.096 76.1173 363.032 77.152H361.36V76.544C361.349 75.5413 361.157 74.8 360.784 74.32C360.416 73.84 359.853 73.6 359.096 73.6C358.259 73.6 357.629 73.864 357.208 74.392C356.787 74.92 356.576 75.6827 356.576 76.68C356.576 77.6293 356.787 78.3653 357.208 78.888C357.629 79.4053 358.237 79.664 359.032 79.664C359.555 79.664 360.005 79.5467 360.384 79.312C360.768 79.072 361.067 78.7307 361.28 78.288L362.92 78.808C362.584 79.5813 362.075 80.1813 361.392 80.608C360.709 81.0293 359.949 81.24 359.112 81.24ZM356.032 77.152V75.848H362.2V77.152H356.032ZM364.179 81L364.187 69.48H365.883V76.52L369.275 72.36H371.403L367.819 76.68L371.771 81H369.499L365.883 76.84V81H364.179Z" fill="black"/>
<path d="M98.8625 81L102.606 69.48H105.014L108.758 81H107.022L103.574 70.488H104.006L100.598 81H98.8625ZM100.806 78.4V76.832H106.822V78.4H100.806ZM109.714 81V69.48H111.386V81H109.714ZM115.871 70.944V69.32H117.543V70.944H115.871ZM115.871 81V72.36H117.543V81H115.871ZM122.61 81.232C121.559 81.232 120.703 81 120.042 80.536C119.38 80.072 118.975 79.4187 118.826 78.576L120.538 78.312C120.644 78.76 120.89 79.1147 121.274 79.376C121.663 79.632 122.146 79.76 122.722 79.76C123.244 79.76 123.652 79.6533 123.946 79.44C124.244 79.2267 124.394 78.9333 124.394 78.56C124.394 78.3413 124.34 78.1653 124.234 78.032C124.132 77.8933 123.916 77.7627 123.586 77.64C123.255 77.5173 122.751 77.3653 122.074 77.184C121.332 76.992 120.743 76.7867 120.306 76.568C119.874 76.344 119.564 76.0853 119.378 75.792C119.196 75.4933 119.106 75.1333 119.106 74.712C119.106 74.1893 119.244 73.7333 119.522 73.344C119.799 72.9547 120.188 72.6533 120.69 72.44C121.196 72.2267 121.788 72.12 122.466 72.12C123.127 72.12 123.716 72.224 124.234 72.432C124.751 72.64 125.17 72.936 125.49 73.32C125.81 73.6987 126.002 74.144 126.066 74.656L124.354 74.968C124.295 74.552 124.1 74.224 123.77 73.984C123.439 73.744 123.01 73.6133 122.482 73.592C121.975 73.5707 121.564 73.656 121.25 73.848C120.935 74.0347 120.778 74.2933 120.778 74.624C120.778 74.816 120.836 74.9787 120.954 75.112C121.076 75.2453 121.311 75.3733 121.658 75.496C122.004 75.6187 122.516 75.7653 123.194 75.936C123.919 76.1227 124.495 76.3307 124.922 76.56C125.348 76.784 125.652 77.0533 125.834 77.368C126.02 77.6773 126.114 78.0533 126.114 78.496C126.114 79.3493 125.802 80.0187 125.178 80.504C124.559 80.9893 123.703 81.232 122.61 81.232ZM133.863 81.24C133.036 81.24 132.343 81.04 131.783 80.64C131.223 80.2347 130.799 79.688 130.511 79C130.223 78.312 130.079 77.536 130.079 76.672C130.079 75.808 130.22 75.032 130.503 74.344C130.791 73.656 131.212 73.1147 131.767 72.72C132.327 72.32 133.015 72.12 133.831 72.12C134.642 72.12 135.34 72.32 135.927 72.72C136.519 73.1147 136.975 73.656 137.295 74.344C137.615 75.0267 137.775 75.8027 137.775 76.672C137.775 77.536 137.615 78.3147 137.295 79.008C136.98 79.696 136.53 80.24 135.943 80.64C135.362 81.04 134.668 81.24 133.863 81.24ZM129.799 84.84V72.36H131.287V78.576H131.479V84.84H129.799ZM133.631 79.728C134.164 79.728 134.604 79.592 134.951 79.32C135.303 79.048 135.564 78.6827 135.735 78.224C135.911 77.76 135.999 77.2427 135.999 76.672C135.999 76.1067 135.911 75.5947 135.735 75.136C135.564 74.6773 135.3 74.312 134.943 74.04C134.586 73.768 134.13 73.632 133.575 73.632C133.052 73.632 132.62 73.76 132.279 74.016C131.943 74.272 131.692 74.6293 131.527 75.088C131.367 75.5467 131.287 76.0747 131.287 76.672C131.287 77.2693 131.367 77.7973 131.527 78.256C131.687 78.7147 131.94 79.0747 132.287 79.336C132.634 79.5973 133.082 79.728 133.631 79.728ZM138.901 81V72.36H140.389V74.456L140.181 74.184C140.288 73.9067 140.427 73.6533 140.597 73.424C140.768 73.1893 140.965 72.9973 141.189 72.848C141.408 72.688 141.651 72.5653 141.917 72.48C142.189 72.3893 142.467 72.336 142.749 72.32C143.032 72.2987 143.304 72.312 143.565 72.36V73.928C143.283 73.8533 142.968 73.832 142.621 73.864C142.28 73.896 141.965 74.0053 141.677 74.192C141.405 74.368 141.189 74.5813 141.029 74.832C140.875 75.0827 140.763 75.3627 140.693 75.672C140.624 75.976 140.589 76.2987 140.589 76.64V81H138.901ZM148.124 81.24C147.266 81.24 146.511 81.0533 145.86 80.68C145.215 80.3013 144.711 79.776 144.348 79.104C143.991 78.4267 143.812 77.6427 143.812 76.752C143.812 75.808 143.988 74.9893 144.34 74.296C144.698 73.6027 145.194 73.0667 145.828 72.688C146.463 72.3093 147.202 72.12 148.044 72.12C148.924 72.12 149.674 72.3253 150.292 72.736C150.911 73.1413 151.372 73.72 151.676 74.472C151.986 75.224 152.108 76.1173 152.044 77.152H150.372V76.544C150.362 75.5413 150.17 74.8 149.796 74.32C149.428 73.84 148.866 73.6 148.108 73.6C147.271 73.6 146.642 73.864 146.22 74.392C145.799 74.92 145.588 75.6827 145.588 76.68C145.588 77.6293 145.799 78.3653 146.22 78.888C146.642 79.4053 147.25 79.664 148.044 79.664C148.567 79.664 149.018 79.5467 149.396 79.312C149.78 79.072 150.079 78.7307 150.292 78.288L151.932 78.808C151.596 79.5813 151.087 80.1813 150.404 80.608C149.722 81.0293 148.962 81.24 148.124 81.24ZM145.044 77.152V75.848H151.212V77.152H145.044ZM156.631 81.24C155.826 81.24 155.13 81.04 154.543 80.64C153.962 80.24 153.511 79.696 153.191 79.008C152.877 78.3147 152.719 77.536 152.719 76.672C152.719 75.8027 152.879 75.0267 153.199 74.344C153.519 73.656 153.973 73.1147 154.559 72.72C155.151 72.32 155.853 72.12 156.663 72.12C157.479 72.12 158.165 72.32 158.719 72.72C159.279 73.1147 159.701 73.656 159.983 74.344C160.271 75.032 160.415 75.808 160.415 76.672C160.415 77.536 160.271 78.312 159.983 79C159.695 79.688 159.271 80.2347 158.711 80.64C158.151 81.04 157.458 81.24 156.631 81.24ZM156.863 79.728C157.413 79.728 157.861 79.5973 158.207 79.336C158.554 79.0747 158.807 78.7147 158.967 78.256C159.127 77.7973 159.207 77.2693 159.207 76.672C159.207 76.0747 159.125 75.5467 158.959 75.088C158.799 74.6293 158.549 74.272 158.207 74.016C157.871 73.76 157.442 73.632 156.919 73.632C156.365 73.632 155.909 73.768 155.551 74.04C155.194 74.312 154.927 74.6773 154.751 75.136C154.581 75.5947 154.495 76.1067 154.495 76.672C154.495 77.2427 154.581 77.76 154.751 78.224C154.927 78.6827 155.189 79.048 155.535 79.32C155.887 79.592 156.33 79.728 156.863 79.728ZM159.207 81V74.784H159.015V69.48H160.695V81H159.207ZM162.454 70.944V69.32H164.126V70.944H162.454ZM162.454 81V72.36H164.126V81H162.454ZM169.584 81.24C168.699 81.24 167.947 81.0427 167.328 80.648C166.709 80.2533 166.235 79.712 165.904 79.024C165.579 78.336 165.413 77.5547 165.408 76.68C165.413 75.7893 165.584 75.0027 165.92 74.32C166.256 73.632 166.736 73.0933 167.36 72.704C167.984 72.3147 168.733 72.12 169.608 72.12C170.552 72.12 171.357 72.3547 172.024 72.824C172.696 73.2933 173.139 73.936 173.352 74.752L171.688 75.232C171.523 74.7467 171.251 74.3707 170.872 74.104C170.499 73.832 170.069 73.696 169.584 73.696C169.035 73.696 168.584 73.8267 168.232 74.088C167.88 74.344 167.619 74.696 167.448 75.144C167.277 75.592 167.189 76.104 167.184 76.68C167.189 77.5707 167.392 78.2907 167.792 78.84C168.197 79.3893 168.795 79.664 169.584 79.664C170.123 79.664 170.557 79.5413 170.888 79.296C171.224 79.0453 171.48 78.688 171.656 78.224L173.352 78.624C173.069 79.4667 172.603 80.1147 171.952 80.568C171.301 81.016 170.512 81.24 169.584 81.24ZM179.286 81C178.742 81.1067 178.209 81.152 177.686 81.136C177.163 81.12 176.697 81.0187 176.286 80.832C175.875 80.6453 175.566 80.352 175.358 79.952C175.171 79.5947 175.07 79.232 175.054 78.864C175.043 78.4907 175.038 78.0693 175.038 77.6V69.96H176.718V77.52C176.718 77.8667 176.721 78.168 176.726 78.424C176.737 78.68 176.793 78.896 176.894 79.072C177.086 79.4027 177.39 79.592 177.806 79.64C178.227 79.6827 178.721 79.664 179.286 79.584V81ZM173.382 73.704V72.36H179.286V73.704H173.382ZM180.627 70.944V69.32H182.299V70.944H180.627ZM180.627 81V72.36H182.299V81H180.627ZM190.126 81V76.752C190.126 76.416 190.097 76.072 190.038 75.72C189.985 75.3627 189.878 75.032 189.718 74.728C189.563 74.424 189.342 74.1787 189.054 73.992C188.771 73.8053 188.401 73.712 187.942 73.712C187.643 73.712 187.361 73.7627 187.094 73.864C186.827 73.96 186.593 74.1173 186.39 74.336C186.193 74.5547 186.035 74.8427 185.918 75.2C185.806 75.5573 185.75 75.992 185.75 76.504L184.71 76.112C184.71 75.328 184.857 74.6373 185.15 74.04C185.443 73.4373 185.865 72.968 186.414 72.632C186.963 72.296 187.627 72.128 188.406 72.128C189.003 72.128 189.505 72.224 189.91 72.416C190.315 72.608 190.643 72.8613 190.894 73.176C191.15 73.4853 191.345 73.824 191.478 74.192C191.611 74.56 191.702 74.92 191.75 75.272C191.798 75.624 191.822 75.9333 191.822 76.2V81H190.126ZM184.054 81V72.36H185.55V74.856H185.75V81H184.054ZM196.826 85.08C196.362 85.08 195.911 85.008 195.474 84.864C195.042 84.72 194.647 84.5067 194.29 84.224C193.932 83.9467 193.636 83.6027 193.402 83.192L194.946 82.408C195.132 82.776 195.399 83.0453 195.746 83.216C196.092 83.3867 196.458 83.472 196.842 83.472C197.316 83.472 197.722 83.3867 198.058 83.216C198.394 83.0507 198.647 82.8 198.818 82.464C198.994 82.128 199.079 81.712 199.074 81.216V78.8H199.274V72.36H200.754V81.232C200.754 81.4613 200.746 81.68 200.73 81.888C200.714 82.096 200.684 82.304 200.642 82.512C200.519 83.0933 200.284 83.5733 199.938 83.952C199.596 84.3307 199.159 84.6133 198.626 84.8C198.098 84.9867 197.498 85.08 196.826 85.08ZM196.698 81.24C195.892 81.24 195.196 81.04 194.61 80.64C194.028 80.24 193.578 79.696 193.258 79.008C192.943 78.3147 192.786 77.536 192.786 76.672C192.786 75.8027 192.946 75.0267 193.266 74.344C193.586 73.656 194.039 73.1147 194.626 72.72C195.218 72.32 195.919 72.12 196.73 72.12C197.546 72.12 198.231 72.32 198.786 72.72C199.346 73.1147 199.767 73.656 200.05 74.344C200.338 75.032 200.482 75.808 200.482 76.672C200.482 77.536 200.338 78.312 200.05 79C199.762 79.688 199.338 80.2347 198.778 80.64C198.218 81.04 197.524 81.24 196.698 81.24ZM196.93 79.728C197.479 79.728 197.927 79.5973 198.274 79.336C198.62 79.0747 198.874 78.7147 199.034 78.256C199.194 77.7973 199.274 77.2693 199.274 76.672C199.274 76.0747 199.191 75.5467 199.026 75.088C198.866 74.6293 198.615 74.272 198.274 74.016C197.938 73.76 197.508 73.632 196.986 73.632C196.431 73.632 195.975 73.768 195.618 74.04C195.26 74.312 194.994 74.6773 194.818 75.136C194.647 75.5947 194.562 76.1067 194.562 76.672C194.562 77.2427 194.647 77.76 194.818 78.224C194.994 78.6827 195.255 79.048 195.602 79.32C195.954 79.592 196.396 79.728 196.93 79.728ZM207.363 81.24C206.723 81.24 206.187 81.1227 205.755 80.888C205.323 80.648 204.995 80.3333 204.771 79.944C204.552 79.5493 204.443 79.1173 204.443 78.648C204.443 78.2107 204.52 77.8267 204.675 77.496C204.83 77.1653 205.059 76.8853 205.363 76.656C205.667 76.4213 206.04 76.232 206.483 76.088C206.867 75.976 207.302 75.8773 207.787 75.792C208.272 75.7067 208.782 75.6267 209.315 75.552C209.854 75.4773 210.387 75.4027 210.915 75.328L210.307 75.664C210.318 74.9867 210.174 74.4853 209.875 74.16C209.582 73.8293 209.075 73.664 208.355 73.664C207.902 73.664 207.486 73.7707 207.107 73.984C206.728 74.192 206.464 74.5387 206.315 75.024L204.755 74.544C204.968 73.8027 205.374 73.2133 205.971 72.776C206.574 72.3387 207.374 72.12 208.371 72.12C209.144 72.12 209.816 72.2533 210.387 72.52C210.963 72.7813 211.384 73.1973 211.651 73.768C211.79 74.0507 211.875 74.3493 211.907 74.664C211.939 74.9787 211.955 75.3173 211.955 75.68V81H210.475V79.024L210.763 79.28C210.406 79.9413 209.95 80.4347 209.395 80.76C208.846 81.08 208.168 81.24 207.363 81.24ZM207.659 79.872C208.134 79.872 208.542 79.7893 208.883 79.624C209.224 79.4533 209.499 79.2373 209.707 78.976C209.915 78.7147 210.051 78.4427 210.115 78.16C210.206 77.904 210.256 77.616 210.267 77.296C210.283 76.976 210.291 76.72 210.291 76.528L210.835 76.728C210.307 76.808 209.827 76.88 209.395 76.944C208.963 77.008 208.571 77.072 208.219 77.136C207.872 77.1947 207.563 77.2667 207.291 77.352C207.062 77.432 206.856 77.528 206.675 77.64C206.499 77.752 206.358 77.888 206.251 78.048C206.15 78.208 206.099 78.4027 206.099 78.632C206.099 78.856 206.155 79.064 206.267 79.256C206.379 79.4427 206.55 79.592 206.779 79.704C207.008 79.816 207.302 79.872 207.659 79.872ZM219.388 81.24C218.582 81.24 217.886 81.04 217.3 80.64C216.718 80.24 216.268 79.696 215.948 79.008C215.633 78.3147 215.476 77.536 215.476 76.672C215.476 75.8027 215.636 75.0267 215.956 74.344C216.276 73.656 216.729 73.1147 217.316 72.72C217.908 72.32 218.609 72.12 219.42 72.12C220.236 72.12 220.921 72.32 221.476 72.72C222.036 73.1147 222.457 73.656 222.74 74.344C223.028 75.032 223.172 75.808 223.172 76.672C223.172 77.536 223.028 78.312 222.74 79C222.452 79.688 222.028 80.2347 221.468 80.64C220.908 81.04 220.214 81.24 219.388 81.24ZM219.62 79.728C220.169 79.728 220.617 79.5973 220.964 79.336C221.31 79.0747 221.564 78.7147 221.724 78.256C221.884 77.7973 221.964 77.2693 221.964 76.672C221.964 76.0747 221.881 75.5467 221.716 75.088C221.556 74.6293 221.305 74.272 220.964 74.016C220.628 73.76 220.198 73.632 219.676 73.632C219.121 73.632 218.665 73.768 218.308 74.04C217.95 74.312 217.684 74.6773 217.508 75.136C217.337 75.5947 217.252 76.1067 217.252 76.672C217.252 77.2427 217.337 77.76 217.508 78.224C217.684 78.6827 217.945 79.048 218.292 79.32C218.644 79.592 219.086 79.728 219.62 79.728ZM221.964 81V74.784H221.772V69.48H223.452V81H221.964ZM225.05 81V72.36H226.538V74.456L226.33 74.184C226.437 73.9067 226.575 73.6533 226.746 73.424C226.917 73.1893 227.114 72.9973 227.338 72.848C227.557 72.688 227.799 72.5653 228.066 72.48C228.338 72.3893 228.615 72.336 228.898 72.32C229.181 72.2987 229.453 72.312 229.714 72.36V73.928C229.431 73.8533 229.117 73.832 228.77 73.864C228.429 73.896 228.114 74.0053 227.826 74.192C227.554 74.368 227.338 74.5813 227.178 74.832C227.023 75.0827 226.911 75.3627 226.842 75.672C226.773 75.976 226.738 76.2987 226.738 76.64V81H225.05ZM234.193 81.24C233.329 81.24 232.58 81.0453 231.945 80.656C231.311 80.2667 230.82 79.7307 230.473 79.048C230.132 78.36 229.961 77.568 229.961 76.672C229.961 75.7707 230.137 74.9787 230.489 74.296C230.841 73.608 231.335 73.0747 231.969 72.696C232.604 72.312 233.345 72.12 234.193 72.12C235.057 72.12 235.807 72.3147 236.441 72.704C237.076 73.0933 237.567 73.6293 237.913 74.312C238.26 74.9947 238.433 75.7813 238.433 76.672C238.433 77.5733 238.257 78.368 237.905 79.056C237.559 79.7387 237.068 80.2747 236.433 80.664C235.799 81.048 235.052 81.24 234.193 81.24ZM234.193 79.664C235.02 79.664 235.636 79.3867 236.041 78.832C236.452 78.272 236.657 77.552 236.657 76.672C236.657 75.7707 236.449 75.0507 236.033 74.512C235.623 73.968 235.009 73.696 234.193 73.696C233.633 73.696 233.172 73.824 232.809 74.08C232.447 74.3307 232.177 74.68 232.001 75.128C231.825 75.5707 231.737 76.0853 231.737 76.672C231.737 77.5787 231.945 78.304 232.361 78.848C232.777 79.392 233.388 79.664 234.193 79.664ZM243.607 81.24C242.781 81.24 242.087 81.04 241.527 80.64C240.967 80.2347 240.543 79.688 240.255 79C239.967 78.312 239.823 77.536 239.823 76.672C239.823 75.808 239.965 75.032 240.247 74.344C240.535 73.656 240.957 73.1147 241.511 72.72C242.071 72.32 242.759 72.12 243.575 72.12C244.386 72.12 245.085 72.32 245.671 72.72C246.263 73.1147 246.719 73.656 247.039 74.344C247.359 75.0267 247.519 75.8027 247.519 76.672C247.519 77.536 247.359 78.3147 247.039 79.008C246.725 79.696 246.274 80.24 245.687 80.64C245.106 81.04 244.413 81.24 243.607 81.24ZM239.543 84.84V72.36H241.031V78.576H241.223V84.84H239.543ZM243.375 79.728C243.909 79.728 244.349 79.592 244.695 79.32C245.047 79.048 245.309 78.6827 245.479 78.224C245.655 77.76 245.743 77.2427 245.743 76.672C245.743 76.1067 245.655 75.5947 245.479 75.136C245.309 74.6773 245.045 74.312 244.687 74.04C244.33 73.768 243.874 73.632 243.319 73.632C242.797 73.632 242.365 73.76 242.023 74.016C241.687 74.272 241.437 74.6293 241.271 75.088C241.111 75.5467 241.031 76.0747 241.031 76.672C241.031 77.2693 241.111 77.7973 241.271 78.256C241.431 78.7147 241.685 79.0747 242.031 79.336C242.378 79.5973 242.826 79.728 243.375 79.728ZM254.961 81.24C254.097 81.24 253.347 81.0453 252.713 80.656C252.078 80.2667 251.587 79.7307 251.241 79.048C250.899 78.36 250.729 77.568 250.729 76.672C250.729 75.7707 250.905 74.9787 251.257 74.296C251.609 73.608 252.102 73.0747 252.737 72.696C253.371 72.312 254.113 72.12 254.961 72.12C255.825 72.12 256.574 72.3147 257.209 72.704C257.843 73.0933 258.334 73.6293 258.681 74.312C259.027 74.9947 259.201 75.7813 259.201 76.672C259.201 77.5733 259.025 78.368 258.673 79.056C258.326 79.7387 257.835 80.2747 257.201 80.664C256.566 81.048 255.819 81.24 254.961 81.24ZM254.961 79.664C255.787 79.664 256.403 79.3867 256.809 78.832C257.219 78.272 257.425 77.552 257.425 76.672C257.425 75.7707 257.217 75.0507 256.801 74.512C256.39 73.968 255.777 73.696 254.961 73.696C254.401 73.696 253.939 73.824 253.577 74.08C253.214 74.3307 252.945 74.68 252.769 75.128C252.593 75.5707 252.505 76.0853 252.505 76.672C252.505 77.5787 252.713 78.304 253.129 78.848C253.545 79.392 254.155 79.664 254.961 79.664ZM261.111 81V72.056C261.111 71.8373 261.119 71.6053 261.135 71.36C261.151 71.1093 261.196 70.864 261.271 70.624C261.351 70.3787 261.481 70.1547 261.663 69.952C261.881 69.712 262.121 69.5413 262.383 69.44C262.644 69.3387 262.903 69.28 263.159 69.264C263.42 69.248 263.66 69.24 263.879 69.24H264.967V70.616H263.959C263.564 70.616 263.268 70.7147 263.071 70.912C262.879 71.104 262.783 71.3787 262.783 71.736V81H261.111ZM259.679 73.704V72.36H264.967V73.704H259.679ZM270.172 81V71.32L268.004 72.64V70.776L270.172 69.48H271.876V81H270.172ZM278.29 81.24C277.506 81.24 276.812 81.0693 276.21 80.728C275.607 80.3813 275.132 79.9067 274.786 79.304C274.444 78.7013 274.274 78.008 274.274 77.224V73.256C274.274 72.472 274.444 71.7787 274.786 71.176C275.132 70.5733 275.607 70.1013 276.21 69.76C276.812 69.4133 277.506 69.24 278.29 69.24C279.074 69.24 279.767 69.4133 280.37 69.76C280.972 70.1013 281.444 70.5733 281.786 71.176C282.132 71.7787 282.306 72.472 282.306 73.256V77.224C282.306 78.008 282.132 78.7013 281.786 79.304C281.444 79.9067 280.972 80.3813 280.37 80.728C279.767 81.0693 279.074 81.24 278.29 81.24ZM278.29 79.64C278.716 79.64 279.103 79.5387 279.45 79.336C279.802 79.128 280.082 78.8507 280.29 78.504C280.498 78.152 280.602 77.76 280.602 77.328V73.136C280.602 72.7093 280.498 72.3227 280.29 71.976C280.082 71.624 279.802 71.3467 279.45 71.144C279.103 70.936 278.716 70.832 278.29 70.832C277.863 70.832 277.474 70.936 277.122 71.144C276.775 71.3467 276.498 71.624 276.29 71.976C276.082 72.3227 275.978 72.7093 275.978 73.136V77.328C275.978 77.76 276.082 78.152 276.29 78.504C276.498 78.8507 276.775 79.128 277.122 79.336C277.474 79.5387 277.863 79.64 278.29 79.64ZM285.339 81L284.219 79.88L294.627 69.48L295.747 70.608L285.339 81ZM293.347 81.24C292.819 81.24 292.337 81.112 291.899 80.856C291.467 80.5947 291.121 80.248 290.859 79.816C290.598 79.3787 290.467 78.8933 290.467 78.36C290.467 77.8373 290.601 77.3573 290.867 76.92C291.134 76.4827 291.486 76.1333 291.923 75.872C292.361 75.6107 292.835 75.48 293.347 75.48C293.875 75.48 294.358 75.6107 294.795 75.872C295.233 76.128 295.579 76.4747 295.835 76.912C296.097 77.344 296.227 77.8267 296.227 78.36C296.227 78.8933 296.097 79.3787 295.835 79.816C295.579 80.248 295.233 80.5947 294.795 80.856C294.358 81.112 293.875 81.24 293.347 81.24ZM293.347 79.792C293.609 79.792 293.846 79.728 294.059 79.6C294.278 79.4667 294.451 79.2907 294.579 79.072C294.713 78.8533 294.779 78.616 294.779 78.36C294.779 78.104 294.713 77.8667 294.579 77.648C294.451 77.4293 294.278 77.256 294.059 77.128C293.846 76.9947 293.609 76.928 293.347 76.928C293.091 76.928 292.854 76.9947 292.635 77.128C292.422 77.256 292.249 77.4293 292.115 77.648C291.987 77.8667 291.923 78.104 291.923 78.36C291.923 78.616 291.987 78.8533 292.115 79.072C292.249 79.2907 292.422 79.4667 292.635 79.6C292.854 79.728 293.091 79.792 293.347 79.792ZM286.619 75C286.091 75 285.609 74.872 285.171 74.616C284.734 74.3547 284.385 74.008 284.123 73.576C283.867 73.1387 283.739 72.6533 283.739 72.12C283.739 71.5973 283.873 71.1173 284.139 70.68C284.406 70.2427 284.758 69.8933 285.195 69.632C285.633 69.3707 286.107 69.24 286.619 69.24C287.147 69.24 287.627 69.3707 288.059 69.632C288.497 69.888 288.846 70.2347 289.107 70.672C289.369 71.104 289.499 71.5867 289.499 72.12C289.499 72.6533 289.369 73.1387 289.107 73.576C288.846 74.008 288.497 74.3547 288.059 74.616C287.627 74.872 287.147 75 286.619 75ZM286.619 73.552C286.875 73.552 287.113 73.488 287.331 73.36C287.55 73.2267 287.723 73.0507 287.851 72.832C287.985 72.6133 288.051 72.376 288.051 72.12C288.051 71.864 287.985 71.6267 287.851 71.408C287.723 71.1893 287.55 71.016 287.331 70.888C287.113 70.7547 286.875 70.688 286.619 70.688C286.363 70.688 286.126 70.7547 285.907 70.888C285.694 71.016 285.521 71.1893 285.387 71.408C285.254 71.6267 285.187 71.864 285.187 72.12C285.187 72.376 285.254 72.6133 285.387 72.832C285.521 73.0507 285.694 73.2267 285.907 73.36C286.121 73.488 286.358 73.552 286.619 73.552ZM306.293 81V76.752C306.293 76.416 306.263 76.072 306.205 75.72C306.151 75.3627 306.045 75.032 305.885 74.728C305.73 74.424 305.509 74.1787 305.221 73.992C304.938 73.8053 304.567 73.712 304.109 73.712C303.81 73.712 303.527 73.7627 303.261 73.864C302.994 73.96 302.759 74.1173 302.557 74.336C302.359 74.5547 302.202 74.8427 302.085 75.2C301.973 75.5573 301.917 75.992 301.917 76.504L300.877 76.112C300.877 75.328 301.023 74.6373 301.317 74.04C301.61 73.4373 302.031 72.968 302.581 72.632C303.13 72.296 303.794 72.128 304.573 72.128C305.17 72.128 305.671 72.224 306.077 72.416C306.482 72.608 306.81 72.8613 307.061 73.176C307.317 73.4853 307.511 73.824 307.645 74.192C307.778 74.56 307.869 74.92 307.917 75.272C307.965 75.624 307.989 75.9333 307.989 76.2V81H306.293ZM300.221 81V72.36H301.717V74.856H301.917V81H300.221ZM313.155 81.24C312.296 81.24 311.542 81.0533 310.891 80.68C310.246 80.3013 309.742 79.776 309.379 79.104C309.022 78.4267 308.843 77.6427 308.843 76.752C308.843 75.808 309.019 74.9893 309.371 74.296C309.728 73.6027 310.224 73.0667 310.859 72.688C311.494 72.3093 312.232 72.12 313.075 72.12C313.955 72.12 314.704 72.3253 315.323 72.736C315.942 73.1413 316.403 73.72 316.707 74.472C317.016 75.224 317.139 76.1173 317.075 77.152H315.403V76.544C315.392 75.5413 315.2 74.8 314.827 74.32C314.459 73.84 313.896 73.6 313.139 73.6C312.302 73.6 311.672 73.864 311.251 74.392C310.83 74.92 310.619 75.6827 310.619 76.68C310.619 77.6293 310.83 78.3653 311.251 78.888C311.672 79.4053 312.28 79.664 313.075 79.664C313.598 79.664 314.048 79.5467 314.427 79.312C314.811 79.072 315.11 78.7307 315.323 78.288L316.963 78.808C316.627 79.5813 316.118 80.1813 315.435 80.608C314.752 81.0293 313.992 81.24 313.155 81.24ZM310.075 77.152V75.848H316.243V77.152H310.075ZM316.958 81L320.19 76.632L317.03 72.36H319.014L321.166 75.328L323.294 72.36H325.278L322.118 76.632L325.358 81H323.366L321.166 77.936L318.95 81H316.958ZM330.94 81C330.396 81.1067 329.863 81.152 329.34 81.136C328.818 81.12 328.351 81.0187 327.94 80.832C327.53 80.6453 327.22 80.352 327.012 79.952C326.826 79.5947 326.724 79.232 326.708 78.864C326.698 78.4907 326.692 78.0693 326.692 77.6V69.96H328.372V77.52C328.372 77.8667 328.375 78.168 328.38 78.424C328.391 78.68 328.447 78.896 328.548 79.072C328.74 79.4027 329.044 79.592 329.46 79.64C329.882 79.6827 330.375 79.664 330.94 79.584V81ZM325.036 73.704V72.36H330.94V73.704H325.036ZM336.525 81L333.885 72.352L335.541 72.36L337.349 78.288L339.173 72.36H340.613L342.437 78.288L344.245 72.36H345.893L343.253 81H341.909L339.893 74.744L337.869 81H336.525ZM350.205 81.24C349.346 81.24 348.592 81.0533 347.941 80.68C347.296 80.3013 346.792 79.776 346.429 79.104C346.072 78.4267 345.893 77.6427 345.893 76.752C345.893 75.808 346.069 74.9893 346.421 74.296C346.778 73.6027 347.274 73.0667 347.909 72.688C348.544 72.3093 349.282 72.12 350.125 72.12C351.005 72.12 351.754 72.3253 352.373 72.736C352.992 73.1413 353.453 73.72 353.757 74.472C354.066 75.224 354.189 76.1173 354.125 77.152H352.453V76.544C352.442 75.5413 352.25 74.8 351.877 74.32C351.509 73.84 350.946 73.6 350.189 73.6C349.352 73.6 348.722 73.864 348.301 74.392C347.88 74.92 347.669 75.6827 347.669 76.68C347.669 77.6293 347.88 78.3653 348.301 78.888C348.722 79.4053 349.33 79.664 350.125 79.664C350.648 79.664 351.098 79.5467 351.477 79.312C351.861 79.072 352.16 78.7307 352.373 78.288L354.013 78.808C353.677 79.5813 353.168 80.1813 352.485 80.608C351.802 81.0293 351.042 81.24 350.205 81.24ZM347.125 77.152V75.848H353.293V77.152H347.125ZM359.112 81.24C358.253 81.24 357.499 81.0533 356.848 80.68C356.203 80.3013 355.699 79.776 355.336 79.104C354.979 78.4267 354.8 77.6427 354.8 76.752C354.8 75.808 354.976 74.9893 355.328 74.296C355.685 73.6027 356.181 73.0667 356.816 72.688C357.451 72.3093 358.189 72.12 359.032 72.12C359.912 72.12 360.661 72.3253 361.28 72.736C361.899 73.1413 362.36 73.72 362.664 74.472C362.973 75.224 363.096 76.1173 363.032 77.152H361.36V76.544C361.349 75.5413 361.157 74.8 360.784 74.32C360.416 73.84 359.853 73.6 359.096 73.6C358.259 73.6 357.629 73.864 357.208 74.392C356.787 74.92 356.576 75.6827 356.576 76.68C356.576 77.6293 356.787 78.3653 357.208 78.888C357.629 79.4053 358.237 79.664 359.032 79.664C359.555 79.664 360.005 79.5467 360.384 79.312C360.768 79.072 361.067 78.7307 361.28 78.288L362.92 78.808C362.584 79.5813 362.075 80.1813 361.392 80.608C360.709 81.0293 359.949 81.24 359.112 81.24ZM356.032 77.152V75.848H362.2V77.152H356.032ZM364.179 81L364.187 69.48H365.883V76.52L369.275 72.36H371.403L367.819 76.68L371.771 81H369.499L365.883 76.84V81H364.179Z" fill="url(#paint1_linear_168_502)"/>
</g>
<defs>
<linearGradient id="paint0_linear_168_502" x1="71" y1="66.5" x2="81" y2="86" gradientUnits="userSpaceOnUse">
<stop stop-color="#0066FF"/>
<stop offset="0.526251" stop-color="#7BAAEF"/>
<stop offset="1" stop-color="#003D99"/>
</linearGradient>
<linearGradient id="paint1_linear_168_502" x1="131.488" y1="66.763" x2="132.611" y2="93.9361" gradientUnits="userSpaceOnUse">
<stop stop-color="#0066FF"/>
<stop offset="0.526251" stop-color="#7BAAEF"/>
<stop offset="1" stop-color="#003D99"/>
</linearGradient>
<clipPath id="clip0_168_502">
<rect width="437" height="462" fill="white"/>
</clipPath>
<clipPath id="clip1_168_502">
<rect width="856" height="304" fill="white" transform="translate(25 170)"/>
</clipPath>
<clipPath id="clip2_168_502">
<rect width="827" height="304" fill="white" transform="translate(54 170)"/>
</clipPath>
</defs>
</svg>
