<svg width="1440" height="1133" viewBox="0 0 1440 1133" fill="none" xmlns="http://www.w3.org/2000/svg">
<g clip-path="url(#clip0_168_394)">
<rect width="1440" height="1133" fill="url(#paint0_linear_168_394)"/>
<g opacity="0.5">
<g opacity="0.09">
<line x1="-105" y1="758.644" x2="1406.58" y2="758.644" stroke="#222020" stroke-width="1.2607"/>
<line x1="-105" y1="1081.38" x2="1406.58" y2="1081.38" stroke="#222020" stroke-width="1.2607"/>
<line x1="-105" y1="435.906" x2="1406.58" y2="435.906" stroke="#222020" stroke-width="1.2607"/>
<line x1="-105" y1="113.166" x2="1406.58" y2="113.166" stroke="#222020" stroke-width="1.2607"/>
<line x1="-105" y1="597.274" x2="1406.58" y2="597.274" stroke="#222020" stroke-width="1.2607"/>
<line x1="-105" y1="920.012" x2="1406.58" y2="920.012" stroke="#222020" stroke-width="1.2607"/>
<line x1="-105" y1="274.536" x2="1406.58" y2="274.536" stroke="#222020" stroke-width="1.2607"/>
<line x1="-105" y1="677.959" x2="1406.58" y2="677.959" stroke="#222020" stroke-width="1.2607"/>
<line x1="-105" y1="1000.7" x2="1406.58" y2="1000.7" stroke="#222020" stroke-width="1.2607"/>
<line x1="-105" y1="355.221" x2="1406.58" y2="355.221" stroke="#222020" stroke-width="1.2607"/>
<line x1="-105" y1="32.4828" x2="1406.58" y2="32.4828" stroke="#222020" stroke-width="1.2607"/>
<line x1="-105" y1="516.589" x2="1406.58" y2="516.589" stroke="#222020" stroke-width="1.2607"/>
<line x1="-105" y1="839.329" x2="1406.58" y2="839.329" stroke="#222020" stroke-width="1.2607"/>
<line x1="-105" y1="193.851" x2="1406.58" y2="193.851" stroke="#222020" stroke-width="1.2607"/>
<line x1="587.756" y1="84.8012" x2="587.756" y2="1252.21" stroke="#222020" stroke-width="1.2607"/>
<line x1="265.016" y1="84.801" x2="265.016" y2="1252.21" stroke="#222020" stroke-width="1.2607"/>
<line x1="910.492" y1="84.8012" x2="910.492" y2="1252.21" stroke="#222020" stroke-width="1.2607"/>
<line x1="1233.23" y1="84.8012" x2="1233.23" y2="1252.21" stroke="#222020" stroke-width="1.2607"/>
<line x1="103.645" y1="84.8012" x2="103.645" y2="1252.21" stroke="#222020" stroke-width="1.2607"/>
<line x1="749.122" y1="84.8012" x2="749.122" y2="1252.21" stroke="#222020" stroke-width="1.2607"/>
<line x1="426.386" y1="84.8012" x2="426.386" y2="1252.21" stroke="#222020" stroke-width="1.2607"/>
<line x1="1071.86" y1="84.801" x2="1071.86" y2="1252.21" stroke="#222020" stroke-width="1.2607"/>
<line x1="1394.6" y1="84.8012" x2="1394.6" y2="1252.21" stroke="#222020" stroke-width="1.2607"/>
<line x1="22.9626" y1="84.8012" x2="22.9625" y2="1252.21" stroke="#222020" stroke-width="1.2607"/>
<line x1="668.439" y1="84.801" x2="668.439" y2="1252.21" stroke="#222020" stroke-width="1.2607"/>
<line x1="345.699" y1="84.8012" x2="345.698" y2="1252.21" stroke="#222020" stroke-width="1.2607"/>
<line x1="991.179" y1="84.8012" x2="991.179" y2="1252.21" stroke="#222020" stroke-width="1.2607"/>
<line x1="1313.92" y1="84.8012" x2="1313.92" y2="1252.21" stroke="#222020" stroke-width="1.2607"/>
<line x1="184.333" y1="84.8012" x2="184.333" y2="1252.21" stroke="#222020" stroke-width="1.2607"/>
<line x1="829.809" y1="84.8012" x2="829.809" y2="1252.21" stroke="#222020" stroke-width="1.2607"/>
<line x1="507.069" y1="84.8012" x2="507.069" y2="1252.21" stroke="#222020" stroke-width="1.2607"/>
<line x1="1152.55" y1="84.8012" x2="1152.55" y2="1252.21" stroke="#222020" stroke-width="1.2607"/>
</g>
<g opacity="0.5">
<rect x="749.181" y="919.955" width="80.2262" height="80.2262" fill="#0066FF" fill-opacity="0.5"/>
<rect x="345.758" y="919.955" width="80.2262" height="80.2262" fill="#0066FF"/>
<rect x="1072.38" y="356.079" width="80.2262" height="79.0801" fill="#0066FF" fill-opacity="0.25"/>
<rect x="425.985" y="597.853" width="80.2262" height="79.0801" fill="#0066FF" fill-opacity="0.15"/>
<rect x="991.006" y="436.306" width="80.2262" height="79.0801" fill="#0066FF" fill-opacity="0.25"/>
<rect x="345.612" y="356.079" width="80.2262" height="79.0801" fill="#0066FF" fill-opacity="0.15"/>
<rect x="991.006" y="356.079" width="80.2262" height="79.0801" fill="#0066FF" fill-opacity="0.25"/>
<rect x="345.612" y="597.853" width="80.2262" height="79.0801" fill="#0066FF" fill-opacity="0.15"/>
<rect x="265.531" y="919.955" width="80.2262" height="80.2262" fill="#0066FF"/>
<rect x="265.531" y="1000.18" width="80.2262" height="81.3723" fill="#0066FF"/>
<rect x="103.933" y="839.729" width="80.2262" height="80.2262" fill="#0066FF"/>
<rect x="910.779" y="194.481" width="80.2262" height="80.2262" fill="#0066FF" fill-opacity="0.15"/>
<rect x="829.676" y="113.794" width="80.2262" height="79.5062" fill="#0066FF" fill-opacity="0.15"/>
<rect x="829.676" y="194.052" width="80.2262" height="80.0285" fill="#0066FF" fill-opacity="0.15"/>
<rect x="103.933" y="273.561" width="81.3723" height="82.5184" fill="#0066FF"/>
<rect x="22.5606" y="193.335" width="81.3723" height="80.2262" fill="#0066FF"/>
<rect x="-57.6656" y="194.481" width="81.3723" height="80.2262" fill="#0066FF"/>
<rect x="22.5606" y="273.561" width="81.3723" height="82.5184" fill="#0066FF"/>
<rect x="345.758" y="113.109" width="81.3723" height="80.2262" fill="#0066FF" fill-opacity="0.25"/>
<rect x="103.933" y="435.16" width="80.2262" height="81.3723" fill="#0066FF"/>
<rect x="1072.38" y="839.729" width="80.2262" height="80.2262" fill="#0066FF" fill-opacity="0.15"/>
<rect x="1152.6" y="919.955" width="80.2262" height="80.2262" fill="#0066FF" fill-opacity="0.15"/>
<ellipse cx="731" cy="360.5" rx="348" ry="156.5" fill="url(#paint1_radial_168_394)"/>
</g>
</g>
<g filter="url(#filter0_f_168_394)">
<circle cx="1400" cy="57" r="110" fill="#0066FF"/>
</g>
<g filter="url(#filter1_f_168_394)">
<circle cx="85" cy="984" r="110" fill="#0066FF"/>
</g>
</g>
<defs>
<filter id="filter0_f_168_394" x="890" y="-453" width="1020" height="1020" filterUnits="userSpaceOnUse" color-interpolation-filters="sRGB">
<feFlood flood-opacity="0" result="BackgroundImageFix"/>
<feBlend mode="normal" in="SourceGraphic" in2="BackgroundImageFix" result="shape"/>
<feGaussianBlur stdDeviation="200" result="effect1_foregroundBlur_168_394"/>
</filter>
<filter id="filter1_f_168_394" x="-425" y="474" width="1020" height="1020" filterUnits="userSpaceOnUse" color-interpolation-filters="sRGB">
<feFlood flood-opacity="0" result="BackgroundImageFix"/>
<feBlend mode="normal" in="SourceGraphic" in2="BackgroundImageFix" result="shape"/>
<feGaussianBlur stdDeviation="200" result="effect1_foregroundBlur_168_394"/>
</filter>
<linearGradient id="paint0_linear_168_394" x1="0" y1="0" x2="1440" y2="1154.5" gradientUnits="userSpaceOnUse">
<stop offset="0.235577" stop-color="#F7FAFE"/>
<stop offset="0.483638" stop-color="#DDECFF"/>
<stop offset="0.754808" stop-color="#F7FAFE"/>
</linearGradient>
<radialGradient id="paint1_radial_168_394" cx="0" cy="0" r="1" gradientUnits="userSpaceOnUse" gradientTransform="translate(731 360.5) rotate(90) scale(178.381 396.657)">
<stop stop-color="#E6EDFB"/>
<stop offset="1" stop-color="#E6EDFB" stop-opacity="0"/>
</radialGradient>
<clipPath id="clip0_168_394">
<rect width="1440" height="1133" fill="white"/>
</clipPath>
</defs>
</svg>
