<svg width="145" height="33" viewBox="0 0 145 33" fill="none" xmlns="http://www.w3.org/2000/svg">
<g clip-path="url(#clip0_682_42)">
<path d="M12.5874 29.9106C11.5479 31.0066 9.2792 30.506 8.81886 28.9743C7.87001 25.8163 10.642 25.8084 12.3871 24.4691C16.5631 21.2644 15.4639 17.5088 9.88171 18.3017C7.02519 18.7073 4.94153 21.9748 2.35636 21.1039C-0.126954 20.2674 -0.79232 16.9061 1.0564 15.0434C2.58349 13.5043 4.80499 14.1589 6.17257 11.1453C7.67972 7.82414 4.72437 4.85278 8.89255 2.854C11.9953 1.36636 15.6182 4.83883 13.9342 8.146C13.03 9.92236 9.81409 9.95333 7.96754 12.4903C4.65631 17.04 10.6992 17.9629 13.89 16.5755C15.0625 16.0657 16.3481 14.6038 17.5835 14.2715C20.4877 13.4899 22.9112 16.4076 21.6641 19.2582C20.7183 21.4196 16.7239 21.4113 14.8765 23.725C13.4422 25.5214 13.5163 28.9307 12.5874 29.9106Z" fill="black"/>
</g>
<path d="M33.944 26.36C32.704 26.36 31.584 26.148 30.584 25.724C29.592 25.292 28.772 24.68 28.124 23.888C27.484 23.088 27.068 22.14 26.876 21.044L29.492 20.648C29.756 21.704 30.308 22.528 31.148 23.12C31.988 23.704 32.968 23.996 34.088 23.996C34.784 23.996 35.424 23.888 36.008 23.672C36.592 23.448 37.06 23.132 37.412 22.724C37.772 22.308 37.952 21.812 37.952 21.236C37.952 20.924 37.896 20.648 37.784 20.408C37.68 20.168 37.532 19.96 37.34 19.784C37.156 19.6 36.928 19.444 36.656 19.316C36.392 19.18 36.1 19.064 35.78 18.968L31.352 17.66C30.92 17.532 30.48 17.368 30.032 17.168C29.584 16.96 29.172 16.692 28.796 16.364C28.428 16.028 28.128 15.616 27.896 15.128C27.664 14.632 27.548 14.032 27.548 13.328C27.548 12.264 27.82 11.364 28.364 10.628C28.916 9.884 29.66 9.324 30.596 8.948C31.532 8.564 32.58 8.372 33.74 8.372C34.908 8.388 35.952 8.596 36.872 8.996C37.8 9.396 38.568 9.972 39.176 10.724C39.792 11.468 40.216 12.372 40.448 13.436L37.76 13.892C37.64 13.244 37.384 12.688 36.992 12.224C36.6 11.752 36.12 11.392 35.552 11.144C34.984 10.888 34.368 10.756 33.704 10.748C33.064 10.732 32.476 10.828 31.94 11.036C31.412 11.244 30.988 11.536 30.668 11.912C30.356 12.288 30.2 12.72 30.2 13.208C30.2 13.688 30.34 14.076 30.62 14.372C30.9 14.668 31.244 14.904 31.652 15.08C32.068 15.248 32.48 15.388 32.888 15.5L36.08 16.4C36.48 16.512 36.932 16.664 37.436 16.856C37.948 17.04 38.44 17.3 38.912 17.636C39.392 17.972 39.788 18.42 40.1 18.98C40.412 19.532 40.568 20.228 40.568 21.068C40.568 21.94 40.392 22.708 40.04 23.372C39.688 24.028 39.204 24.58 38.588 25.028C37.98 25.468 37.276 25.8 36.476 26.024C35.676 26.248 34.832 26.36 33.944 26.36ZM43.6829 31.76L46.1909 24.932L46.2269 26.948L40.5749 13.04H43.1909L47.4149 23.78H46.6469L50.6789 13.04H53.2229L46.0709 31.76H43.6829ZM63.2388 26V19.628C63.2388 19.124 63.1948 18.608 63.1068 18.08C63.0268 17.544 62.8668 17.048 62.6268 16.592C62.3948 16.136 62.0628 15.768 61.6308 15.488C61.2068 15.208 60.6508 15.068 59.9628 15.068C59.5148 15.068 59.0908 15.144 58.6908 15.296C58.2908 15.44 57.9388 15.676 57.6348 16.004C57.3388 16.332 57.1028 16.764 56.9268 17.3C56.7588 17.836 56.6748 18.488 56.6748 19.256L55.1148 18.668C55.1148 17.492 55.3348 16.456 55.7748 15.56C56.2148 14.656 56.8468 13.952 57.6708 13.448C58.4948 12.944 59.4908 12.692 60.6588 12.692C61.5548 12.692 62.3068 12.836 62.9148 13.124C63.5228 13.412 64.0148 13.792 64.3908 14.264C64.7748 14.728 65.0668 15.236 65.2668 15.788C65.4668 16.34 65.6028 16.88 65.6748 17.408C65.7468 17.936 65.7828 18.4 65.7828 18.8V26H63.2388ZM54.1308 26V13.04H56.3748V16.784H56.6748V26H54.1308ZM71.6084 26.36C70.6484 26.36 69.8444 26.184 69.1964 25.832C68.5484 25.472 68.0564 25 67.7204 24.416C67.3924 23.824 67.2284 23.176 67.2284 22.472C67.2284 21.816 67.3444 21.24 67.5764 20.744C67.8084 20.248 68.1524 19.828 68.6084 19.484C69.0644 19.132 69.6244 18.848 70.2884 18.632C70.8644 18.464 71.5164 18.316 72.2444 18.188C72.9724 18.06 73.7364 17.94 74.5364 17.828C75.3444 17.716 76.1444 17.604 76.9364 17.492L76.0244 17.996C76.0404 16.98 75.8244 16.228 75.3764 15.74C74.9364 15.244 74.1764 14.996 73.0964 14.996C72.4164 14.996 71.7924 15.156 71.2244 15.476C70.6564 15.788 70.2604 16.308 70.0364 17.036L67.6964 16.316C68.0164 15.204 68.6244 14.32 69.5204 13.664C70.4244 13.008 71.6244 12.68 73.1204 12.68C74.2804 12.68 75.2884 12.88 76.1444 13.28C77.0084 13.672 77.6404 14.296 78.0404 15.152C78.2484 15.576 78.3764 16.024 78.4244 16.496C78.4724 16.968 78.4964 17.476 78.4964 18.02V26H76.2764V23.036L76.7084 23.42C76.1724 24.412 75.4884 25.152 74.6564 25.64C73.8324 26.12 72.8164 26.36 71.6084 26.36ZM72.0524 24.308C72.7644 24.308 73.3764 24.184 73.8884 23.936C74.4004 23.68 74.8124 23.356 75.1244 22.964C75.4364 22.572 75.6404 22.164 75.7364 21.74C75.8724 21.356 75.9484 20.924 75.9644 20.444C75.9884 19.964 76.0004 19.58 76.0004 19.292L76.8164 19.592C76.0244 19.712 75.3044 19.82 74.6564 19.916C74.0084 20.012 73.4204 20.108 72.8924 20.204C72.3724 20.292 71.9084 20.4 71.5004 20.528C71.1564 20.648 70.8484 20.792 70.5764 20.96C70.3124 21.128 70.1004 21.332 69.9404 21.572C69.7884 21.812 69.7124 22.104 69.7124 22.448C69.7124 22.784 69.7964 23.096 69.9644 23.384C70.1324 23.664 70.3884 23.888 70.7324 24.056C71.0764 24.224 71.5164 24.308 72.0524 24.308ZM86.7365 26.36C85.4965 26.36 84.4565 26.06 83.6165 25.46C82.7765 24.852 82.1405 24.032 81.7085 23C81.2765 21.968 81.0605 20.804 81.0605 19.508C81.0605 18.212 81.2725 17.048 81.6965 16.016C82.1285 14.984 82.7605 14.172 83.5925 13.58C84.4325 12.98 85.4645 12.68 86.6885 12.68C87.9045 12.68 88.9525 12.98 89.8325 13.58C90.7205 14.172 91.4045 14.984 91.8845 16.016C92.3645 17.04 92.6045 18.204 92.6045 19.508C92.6045 20.804 92.3645 21.972 91.8845 23.012C91.4125 24.044 90.7365 24.86 89.8565 25.46C88.9845 26.06 87.9445 26.36 86.7365 26.36ZM80.6405 31.76V13.04H82.8725V22.364H83.1605V31.76H80.6405ZM86.3885 24.092C87.1885 24.092 87.8485 23.888 88.3685 23.48C88.8965 23.072 89.2885 22.524 89.5445 21.836C89.8085 21.14 89.9405 20.364 89.9405 19.508C89.9405 18.66 89.8085 17.892 89.5445 17.204C89.2885 16.516 88.8925 15.968 88.3565 15.56C87.8205 15.152 87.1365 14.948 86.3045 14.948C85.5205 14.948 84.8725 15.14 84.3605 15.524C83.8565 15.908 83.4805 16.444 83.2325 17.132C82.9925 17.82 82.8725 18.612 82.8725 19.508C82.8725 20.404 82.9925 21.196 83.2325 21.884C83.4725 22.572 83.8525 23.112 84.3725 23.504C84.8925 23.896 85.5645 24.092 86.3885 24.092ZM100.378 26.36C99.1381 26.36 98.0981 26.06 97.2581 25.46C96.4181 24.852 95.7821 24.032 95.3501 23C94.9181 21.968 94.7021 20.804 94.7021 19.508C94.7021 18.212 94.9141 17.048 95.3381 16.016C95.7701 14.984 96.4021 14.172 97.2341 13.58C98.0741 12.98 99.1061 12.68 100.33 12.68C101.546 12.68 102.594 12.98 103.474 13.58C104.362 14.172 105.046 14.984 105.526 16.016C106.006 17.04 106.246 18.204 106.246 19.508C106.246 20.804 106.006 21.972 105.526 23.012C105.054 24.044 104.378 24.86 103.498 25.46C102.626 26.06 101.586 26.36 100.378 26.36ZM94.2821 31.76V13.04H96.5141V22.364H96.8021V31.76H94.2821ZM100.03 24.092C100.83 24.092 101.49 23.888 102.01 23.48C102.538 23.072 102.93 22.524 103.186 21.836C103.45 21.14 103.582 20.364 103.582 19.508C103.582 18.66 103.45 17.892 103.186 17.204C102.93 16.516 102.534 15.968 101.998 15.56C101.462 15.152 100.778 14.948 99.9461 14.948C99.1621 14.948 98.5141 15.14 98.0021 15.524C97.4981 15.908 97.1221 16.444 96.8741 17.132C96.6341 17.82 96.5141 18.612 96.5141 19.508C96.5141 20.404 96.6341 21.196 96.8741 21.884C97.1141 22.572 97.4941 23.112 98.0141 23.504C98.5341 23.896 99.2061 24.092 100.03 24.092ZM112.657 26.348C111.081 26.348 109.797 26 108.805 25.304C107.813 24.608 107.205 23.628 106.981 22.364L109.549 21.968C109.709 22.64 110.077 23.172 110.653 23.564C111.237 23.948 111.961 24.14 112.825 24.14C113.609 24.14 114.221 23.98 114.661 23.66C115.109 23.34 115.333 22.9 115.333 22.34C115.333 22.012 115.253 21.748 115.093 21.548C114.941 21.34 114.617 21.144 114.121 20.96C113.625 20.776 112.869 20.548 111.853 20.276C110.741 19.988 109.857 19.68 109.201 19.352C108.553 19.016 108.089 18.628 107.809 18.188C107.537 17.74 107.401 17.2 107.401 16.568C107.401 15.784 107.609 15.1 108.025 14.516C108.441 13.932 109.025 13.48 109.777 13.16C110.537 12.84 111.425 12.68 112.441 12.68C113.433 12.68 114.317 12.836 115.093 13.148C115.869 13.46 116.497 13.904 116.977 14.48C117.457 15.048 117.745 15.716 117.841 16.484L115.273 16.952C115.185 16.328 114.893 15.836 114.397 15.476C113.901 15.116 113.257 14.92 112.465 14.888C111.705 14.856 111.089 14.984 110.617 15.272C110.145 15.552 109.909 15.94 109.909 16.436C109.909 16.724 109.997 16.968 110.173 17.168C110.357 17.368 110.709 17.56 111.229 17.744C111.749 17.928 112.517 18.148 113.533 18.404C114.621 18.684 115.485 18.996 116.125 19.34C116.765 19.676 117.221 20.08 117.493 20.552C117.773 21.016 117.913 21.58 117.913 22.244C117.913 23.524 117.445 24.528 116.509 25.256C115.581 25.984 114.297 26.348 112.657 26.348ZM125.356 26.36C124.068 26.36 122.936 26.08 121.96 25.52C120.992 24.952 120.236 24.164 119.692 23.156C119.156 22.14 118.888 20.964 118.888 19.628C118.888 18.212 119.152 16.984 119.68 15.944C120.216 14.904 120.96 14.1 121.912 13.532C122.864 12.964 123.972 12.68 125.236 12.68C126.556 12.68 127.68 12.988 128.608 13.604C129.536 14.212 130.228 15.08 130.684 16.208C131.148 17.336 131.332 18.676 131.236 20.228H128.728V19.316C128.712 17.812 128.424 16.7 127.864 15.98C127.312 15.26 126.468 14.9 125.332 14.9C124.076 14.9 123.132 15.296 122.5 16.088C121.868 16.88 121.552 18.024 121.552 19.52C121.552 20.944 121.868 22.048 122.5 22.832C123.132 23.608 124.044 23.996 125.236 23.996C126.02 23.996 126.696 23.82 127.264 23.468C127.84 23.108 128.288 22.596 128.608 21.932L131.068 22.712C130.564 23.872 129.8 24.772 128.776 25.412C127.752 26.044 126.612 26.36 125.356 26.36ZM120.736 20.228V18.272H129.988V20.228H120.736ZM137.925 26.348C136.349 26.348 135.065 26 134.073 25.304C133.081 24.608 132.473 23.628 132.249 22.364L134.817 21.968C134.977 22.64 135.345 23.172 135.921 23.564C136.505 23.948 137.229 24.14 138.093 24.14C138.877 24.14 139.489 23.98 139.929 23.66C140.377 23.34 140.601 22.9 140.601 22.34C140.601 22.012 140.521 21.748 140.361 21.548C140.209 21.34 139.885 21.144 139.389 20.96C138.893 20.776 138.137 20.548 137.121 20.276C136.009 19.988 135.125 19.68 134.469 19.352C133.821 19.016 133.357 18.628 133.077 18.188C132.805 17.74 132.669 17.2 132.669 16.568C132.669 15.784 132.877 15.1 133.293 14.516C133.709 13.932 134.293 13.48 135.045 13.16C135.805 12.84 136.693 12.68 137.709 12.68C138.701 12.68 139.585 12.836 140.361 13.148C141.137 13.46 141.765 13.904 142.245 14.48C142.725 15.048 143.013 15.716 143.109 16.484L140.541 16.952C140.453 16.328 140.161 15.836 139.665 15.476C139.169 15.116 138.525 14.92 137.733 14.888C136.973 14.856 136.357 14.984 135.885 15.272C135.413 15.552 135.177 15.94 135.177 16.436C135.177 16.724 135.265 16.968 135.441 17.168C135.625 17.368 135.977 17.56 136.497 17.744C137.017 17.928 137.785 18.148 138.801 18.404C139.889 18.684 140.753 18.996 141.393 19.34C142.033 19.676 142.489 20.08 142.761 20.552C143.041 21.016 143.181 21.58 143.181 22.244C143.181 23.524 142.713 24.528 141.777 25.256C140.849 25.984 139.565 26.348 137.925 26.348Z" fill="black"/>
<defs>
<clipPath id="clip0_682_42">
<rect width="22" height="28" fill="white" transform="translate(0 2.5)"/>
</clipPath>
</defs>
</svg>
